%TF.GenerationSoftware,KiCad,Pcbnew,9.0.3*%
%TF.CreationDate,2025-07-24T22:11:21+07:00*%
%TF.ProjectId,flying thing that crashes,666c7969-6e67-4207-9468-696e67207468,rev?*%
%TF.SameCoordinates,Original*%
%TF.FileFunction,Paste,Top*%
%TF.FilePolarity,Positive*%
%FSLAX45Y45*%
G04 Gerber Fmt 4.5, Leading zero omitted, Abs format (unit mm)*
G04 Created by KiCad (PCBNEW 9.0.3) date 2025-07-24 22:11:21*
%MOMM*%
%LPD*%
G01*
G04 APERTURE LIST*
G04 Aperture macros list*
%AMRoundRect*
0 Rectangle with rounded corners*
0 $1 Rounding radius*
0 $2 $3 $4 $5 $6 $7 $8 $9 X,Y pos of 4 corners*
0 Add a 4 corners polygon primitive as box body*
4,1,4,$2,$3,$4,$5,$6,$7,$8,$9,$2,$3,0*
0 Add four circle primitives for the rounded corners*
1,1,$1+$1,$2,$3*
1,1,$1+$1,$4,$5*
1,1,$1+$1,$6,$7*
1,1,$1+$1,$8,$9*
0 Add four rect primitives between the rounded corners*
20,1,$1+$1,$2,$3,$4,$5,0*
20,1,$1+$1,$4,$5,$6,$7,0*
20,1,$1+$1,$6,$7,$8,$9,0*
20,1,$1+$1,$8,$9,$2,$3,0*%
G04 Aperture macros list end*
%ADD10C,0.000000*%
%ADD11RoundRect,0.250000X0.625000X-0.312500X0.625000X0.312500X-0.625000X0.312500X-0.625000X-0.312500X0*%
%ADD12RoundRect,0.250000X0.262500X0.450000X-0.262500X0.450000X-0.262500X-0.450000X0.262500X-0.450000X0*%
%ADD13RoundRect,0.250000X-0.250000X-0.475000X0.250000X-0.475000X0.250000X0.475000X-0.250000X0.475000X0*%
%ADD14R,2.000000X1.500000*%
%ADD15RoundRect,0.250000X-0.262500X-0.450000X0.262500X-0.450000X0.262500X0.450000X-0.262500X0.450000X0*%
%ADD16R,3.400000X0.980000*%
%ADD17R,0.599999X0.240000*%
%ADD18R,0.240000X0.599999*%
%ADD19R,0.850001X0.700001*%
%ADD20RoundRect,0.250000X0.650000X-0.325000X0.650000X0.325000X-0.650000X0.325000X-0.650000X-0.325000X0*%
%ADD21RoundRect,0.225000X-0.225000X-0.250000X0.225000X-0.250000X0.225000X0.250000X-0.225000X0.250000X0*%
%ADD22RoundRect,0.250000X0.475000X-0.250000X0.475000X0.250000X-0.475000X0.250000X-0.475000X-0.250000X0*%
%ADD23RoundRect,0.250000X-0.450000X0.262500X-0.450000X-0.262500X0.450000X-0.262500X0.450000X0.262500X0*%
%ADD24RoundRect,0.250000X-0.475000X0.250000X-0.475000X-0.250000X0.475000X-0.250000X0.475000X0.250000X0*%
%ADD25RoundRect,0.050000X-0.050000X0.225000X-0.050000X-0.225000X0.050000X-0.225000X0.050000X0.225000X0*%
%ADD26RoundRect,0.050000X-0.225000X-0.050000X0.225000X-0.050000X0.225000X0.050000X-0.225000X0.050000X0*%
%ADD27RoundRect,0.250000X0.250000X0.475000X-0.250000X0.475000X-0.250000X-0.475000X0.250000X-0.475000X0*%
G04 APERTURE END LIST*
D10*
%TO.C,U6*%
G36*
X6786726Y-5974096D02*
G01*
X6787664Y-5974381D01*
X6788528Y-5974843D01*
X6789286Y-5975464D01*
X6789907Y-5976222D01*
X6790369Y-5977086D01*
X6790654Y-5978024D01*
X6790750Y-5979000D01*
X6790750Y-5994000D01*
X6790654Y-5994975D01*
X6790369Y-5995913D01*
X6789907Y-5996778D01*
X6789286Y-5997535D01*
X6788528Y-5998157D01*
X6787664Y-5998619D01*
X6786726Y-5998904D01*
X6785750Y-5999000D01*
X6723750Y-5999000D01*
X6722774Y-5998904D01*
X6721836Y-5998619D01*
X6720972Y-5998157D01*
X6720214Y-5997535D01*
X6719593Y-5996778D01*
X6719131Y-5995913D01*
X6718846Y-5994975D01*
X6718750Y-5994000D01*
X6718750Y-5979000D01*
X6718846Y-5978024D01*
X6719131Y-5977086D01*
X6719593Y-5976222D01*
X6720214Y-5975464D01*
X6720972Y-5974843D01*
X6721836Y-5974381D01*
X6722774Y-5974096D01*
X6723750Y-5974000D01*
X6785750Y-5974000D01*
X6786726Y-5974096D01*
G37*
G36*
X6804275Y-5924096D02*
G01*
X6805213Y-5924381D01*
X6806078Y-5924843D01*
X6806836Y-5925465D01*
X6807457Y-5926222D01*
X6807920Y-5927087D01*
X6808204Y-5928025D01*
X6808300Y-5929000D01*
X6808300Y-5944000D01*
X6808204Y-5944976D01*
X6807920Y-5945914D01*
X6807457Y-5946778D01*
X6806836Y-5947536D01*
X6806078Y-5948157D01*
X6805213Y-5948619D01*
X6804275Y-5948904D01*
X6803300Y-5949000D01*
X6755800Y-5949000D01*
X6754825Y-5948904D01*
X6753887Y-5948619D01*
X6753022Y-5948157D01*
X6752265Y-5947536D01*
X6751643Y-5946778D01*
X6751181Y-5945914D01*
X6750896Y-5944976D01*
X6750800Y-5944000D01*
X6750800Y-5929000D01*
X6750896Y-5928025D01*
X6751181Y-5927087D01*
X6751643Y-5926222D01*
X6752265Y-5925465D01*
X6753022Y-5924843D01*
X6753887Y-5924381D01*
X6754825Y-5924096D01*
X6755800Y-5924000D01*
X6803300Y-5924000D01*
X6804275Y-5924096D01*
G37*
G36*
X6804275Y-6024096D02*
G01*
X6805213Y-6024380D01*
X6806078Y-6024843D01*
X6806836Y-6025464D01*
X6807457Y-6026222D01*
X6807920Y-6027086D01*
X6808204Y-6028024D01*
X6808300Y-6029000D01*
X6808300Y-6044000D01*
X6808204Y-6044975D01*
X6807920Y-6045913D01*
X6807457Y-6046778D01*
X6806836Y-6047535D01*
X6806078Y-6048157D01*
X6805213Y-6048619D01*
X6804275Y-6048904D01*
X6803300Y-6049000D01*
X6755800Y-6049000D01*
X6754825Y-6048904D01*
X6753887Y-6048619D01*
X6753022Y-6048157D01*
X6752265Y-6047535D01*
X6751643Y-6046778D01*
X6751181Y-6045913D01*
X6750896Y-6044975D01*
X6750800Y-6044000D01*
X6750800Y-6029000D01*
X6750896Y-6028024D01*
X6751181Y-6027086D01*
X6751643Y-6026222D01*
X6752265Y-6025464D01*
X6753022Y-6024843D01*
X6753887Y-6024380D01*
X6754825Y-6024096D01*
X6755800Y-6024000D01*
X6803300Y-6024000D01*
X6804275Y-6024096D01*
G37*
G36*
X6826725Y-5851596D02*
G01*
X6827664Y-5851881D01*
X6828528Y-5852343D01*
X6829286Y-5852965D01*
X6829907Y-5853722D01*
X6830370Y-5854587D01*
X6830654Y-5855525D01*
X6830750Y-5856500D01*
X6830750Y-5871500D01*
X6830654Y-5872476D01*
X6830370Y-5873414D01*
X6829907Y-5874278D01*
X6829286Y-5875036D01*
X6828528Y-5875657D01*
X6827664Y-5876119D01*
X6826725Y-5876404D01*
X6825750Y-5876500D01*
X6760750Y-5876500D01*
X6759775Y-5876404D01*
X6758837Y-5876119D01*
X6757972Y-5875657D01*
X6757215Y-5875036D01*
X6756593Y-5874278D01*
X6756131Y-5873414D01*
X6755846Y-5872476D01*
X6755750Y-5871500D01*
X6755750Y-5856500D01*
X6755846Y-5855525D01*
X6756131Y-5854587D01*
X6756593Y-5853722D01*
X6757215Y-5852965D01*
X6757972Y-5852343D01*
X6758837Y-5851881D01*
X6759775Y-5851596D01*
X6760750Y-5851500D01*
X6825750Y-5851500D01*
X6826725Y-5851596D01*
G37*
G36*
X6826725Y-6096596D02*
G01*
X6827664Y-6096880D01*
X6828528Y-6097343D01*
X6829286Y-6097964D01*
X6829907Y-6098722D01*
X6830370Y-6099586D01*
X6830654Y-6100524D01*
X6830750Y-6101500D01*
X6830750Y-6116500D01*
X6830654Y-6117475D01*
X6830370Y-6118413D01*
X6829907Y-6119278D01*
X6829286Y-6120035D01*
X6828528Y-6120657D01*
X6827664Y-6121119D01*
X6826725Y-6121404D01*
X6825750Y-6121500D01*
X6760750Y-6121500D01*
X6759775Y-6121404D01*
X6758837Y-6121119D01*
X6757972Y-6120657D01*
X6757215Y-6120035D01*
X6756593Y-6119278D01*
X6756131Y-6118413D01*
X6755846Y-6117475D01*
X6755750Y-6116500D01*
X6755750Y-6101500D01*
X6755846Y-6100524D01*
X6756131Y-6099586D01*
X6756593Y-6098722D01*
X6757215Y-6097964D01*
X6757972Y-6097343D01*
X6758837Y-6096880D01*
X6759775Y-6096596D01*
X6760750Y-6096500D01*
X6825750Y-6096500D01*
X6826725Y-6096596D01*
G37*
G36*
X6776725Y-6096596D02*
G01*
X6777663Y-6096880D01*
X6778528Y-6097343D01*
X6779285Y-6097965D01*
X6779907Y-6098722D01*
X6780369Y-6099587D01*
X6780654Y-6100525D01*
X6780750Y-6101500D01*
X6780750Y-6151500D01*
X6780654Y-6152475D01*
X6780369Y-6153413D01*
X6779907Y-6154278D01*
X6779285Y-6155035D01*
X6778528Y-6155657D01*
X6777663Y-6156119D01*
X6776725Y-6156404D01*
X6775750Y-6156500D01*
X6760750Y-6156500D01*
X6759774Y-6156404D01*
X6758836Y-6156119D01*
X6757972Y-6155657D01*
X6757214Y-6155035D01*
X6756593Y-6154278D01*
X6756131Y-6153413D01*
X6755846Y-6152475D01*
X6755750Y-6151500D01*
X6755750Y-6101500D01*
X6755846Y-6100525D01*
X6756131Y-6099587D01*
X6756593Y-6098722D01*
X6757214Y-6097965D01*
X6757972Y-6097343D01*
X6758836Y-6096880D01*
X6759774Y-6096596D01*
X6760750Y-6096500D01*
X6775750Y-6096500D01*
X6776725Y-6096596D01*
G37*
G36*
X6776725Y-5816596D02*
G01*
X6777663Y-5816881D01*
X6778528Y-5817343D01*
X6779285Y-5817965D01*
X6779907Y-5818722D01*
X6780369Y-5819587D01*
X6780654Y-5820525D01*
X6780750Y-5821500D01*
X6780750Y-5871500D01*
X6780654Y-5872475D01*
X6780369Y-5873413D01*
X6779907Y-5874278D01*
X6779285Y-5875035D01*
X6778528Y-5875657D01*
X6777663Y-5876119D01*
X6776725Y-5876404D01*
X6775750Y-5876500D01*
X6760750Y-5876500D01*
X6759774Y-5876404D01*
X6758836Y-5876119D01*
X6757972Y-5875657D01*
X6757214Y-5875035D01*
X6756593Y-5874278D01*
X6756131Y-5873413D01*
X6755846Y-5872475D01*
X6755750Y-5871500D01*
X6755750Y-5821500D01*
X6755846Y-5820525D01*
X6756131Y-5819587D01*
X6756593Y-5818722D01*
X6757214Y-5817965D01*
X6757972Y-5817343D01*
X6758836Y-5816881D01*
X6759774Y-5816596D01*
X6760750Y-5816500D01*
X6775750Y-5816500D01*
X6776725Y-5816596D01*
G37*
G36*
X6878726Y-5974096D02*
G01*
X6879664Y-5974381D01*
X6880528Y-5974843D01*
X6881286Y-5975464D01*
X6881908Y-5976222D01*
X6882370Y-5977086D01*
X6882654Y-5978024D01*
X6882750Y-5979000D01*
X6882750Y-5994000D01*
X6882654Y-5994975D01*
X6882370Y-5995913D01*
X6881908Y-5996778D01*
X6881286Y-5997535D01*
X6880528Y-5998157D01*
X6879664Y-5998619D01*
X6878726Y-5998904D01*
X6877750Y-5999000D01*
X6815750Y-5999000D01*
X6814775Y-5998904D01*
X6813837Y-5998619D01*
X6812972Y-5998157D01*
X6812214Y-5997535D01*
X6811593Y-5996778D01*
X6811131Y-5995913D01*
X6810846Y-5994975D01*
X6810750Y-5994000D01*
X6810750Y-5979000D01*
X6810846Y-5978024D01*
X6811131Y-5977086D01*
X6811593Y-5976222D01*
X6812214Y-5975464D01*
X6812972Y-5974843D01*
X6813837Y-5974381D01*
X6814775Y-5974096D01*
X6815750Y-5974000D01*
X6877750Y-5974000D01*
X6878726Y-5974096D01*
G37*
G36*
X6826726Y-6096596D02*
G01*
X6827664Y-6096880D01*
X6828528Y-6097343D01*
X6829286Y-6097965D01*
X6829908Y-6098722D01*
X6830370Y-6099587D01*
X6830654Y-6100525D01*
X6830750Y-6101500D01*
X6830750Y-6151500D01*
X6830654Y-6152475D01*
X6830370Y-6153413D01*
X6829908Y-6154278D01*
X6829286Y-6155035D01*
X6828528Y-6155657D01*
X6827664Y-6156119D01*
X6826726Y-6156404D01*
X6825750Y-6156500D01*
X6810750Y-6156500D01*
X6809775Y-6156404D01*
X6808837Y-6156119D01*
X6807972Y-6155657D01*
X6807215Y-6155035D01*
X6806593Y-6154278D01*
X6806131Y-6153413D01*
X6805846Y-6152475D01*
X6805750Y-6151500D01*
X6805750Y-6101500D01*
X6805846Y-6100525D01*
X6806131Y-6099587D01*
X6806593Y-6098722D01*
X6807215Y-6097965D01*
X6807972Y-6097343D01*
X6808837Y-6096880D01*
X6809775Y-6096596D01*
X6810750Y-6096500D01*
X6825750Y-6096500D01*
X6826726Y-6096596D01*
G37*
G36*
X6826726Y-5816596D02*
G01*
X6827664Y-5816881D01*
X6828528Y-5817343D01*
X6829286Y-5817965D01*
X6829908Y-5818722D01*
X6830370Y-5819587D01*
X6830654Y-5820525D01*
X6830750Y-5821500D01*
X6830750Y-5871500D01*
X6830654Y-5872475D01*
X6830370Y-5873413D01*
X6829908Y-5874278D01*
X6829286Y-5875035D01*
X6828528Y-5875657D01*
X6827664Y-5876119D01*
X6826726Y-5876404D01*
X6825750Y-5876500D01*
X6810750Y-5876500D01*
X6809775Y-5876404D01*
X6808837Y-5876119D01*
X6807972Y-5875657D01*
X6807215Y-5875035D01*
X6806593Y-5874278D01*
X6806131Y-5873413D01*
X6805846Y-5872475D01*
X6805750Y-5871500D01*
X6805750Y-5821500D01*
X6805846Y-5820525D01*
X6806131Y-5819587D01*
X6806593Y-5818722D01*
X6807215Y-5817965D01*
X6807972Y-5817343D01*
X6808837Y-5816881D01*
X6809775Y-5816596D01*
X6810750Y-5816500D01*
X6825750Y-5816500D01*
X6826726Y-5816596D01*
G37*
G36*
X6881775Y-5924096D02*
G01*
X6882713Y-5924381D01*
X6883578Y-5924843D01*
X6884335Y-5925465D01*
X6884957Y-5926222D01*
X6885420Y-5927087D01*
X6885704Y-5928025D01*
X6885800Y-5929000D01*
X6885800Y-5944000D01*
X6885704Y-5944976D01*
X6885420Y-5945914D01*
X6884957Y-5946778D01*
X6884335Y-5947536D01*
X6883578Y-5948157D01*
X6882713Y-5948619D01*
X6881775Y-5948904D01*
X6880800Y-5949000D01*
X6833300Y-5949000D01*
X6832325Y-5948904D01*
X6831387Y-5948619D01*
X6830522Y-5948157D01*
X6829765Y-5947536D01*
X6829143Y-5946778D01*
X6828681Y-5945914D01*
X6828396Y-5944976D01*
X6828300Y-5944000D01*
X6828300Y-5929000D01*
X6828396Y-5928025D01*
X6828681Y-5927087D01*
X6829143Y-5926222D01*
X6829765Y-5925465D01*
X6830522Y-5924843D01*
X6831387Y-5924381D01*
X6832325Y-5924096D01*
X6833300Y-5924000D01*
X6880800Y-5924000D01*
X6881775Y-5924096D01*
G37*
G36*
X6881775Y-6024096D02*
G01*
X6882713Y-6024380D01*
X6883578Y-6024843D01*
X6884335Y-6025464D01*
X6884957Y-6026222D01*
X6885420Y-6027086D01*
X6885704Y-6028024D01*
X6885800Y-6029000D01*
X6885800Y-6044000D01*
X6885704Y-6044975D01*
X6885420Y-6045913D01*
X6884957Y-6046778D01*
X6884335Y-6047535D01*
X6883578Y-6048157D01*
X6882713Y-6048619D01*
X6881775Y-6048904D01*
X6880800Y-6049000D01*
X6833300Y-6049000D01*
X6832325Y-6048904D01*
X6831387Y-6048619D01*
X6830522Y-6048157D01*
X6829765Y-6047535D01*
X6829143Y-6046778D01*
X6828681Y-6045913D01*
X6828396Y-6044975D01*
X6828300Y-6044000D01*
X6828300Y-6029000D01*
X6828396Y-6028024D01*
X6828681Y-6027086D01*
X6829143Y-6026222D01*
X6829765Y-6025464D01*
X6830522Y-6024843D01*
X6831387Y-6024380D01*
X6832325Y-6024096D01*
X6833300Y-6024000D01*
X6880800Y-6024000D01*
X6881775Y-6024096D01*
G37*
%TD*%
D11*
%TO.C,R7*%
X6150000Y-3146000D03*
X6150000Y-2853500D03*
%TD*%
%TO.C,R15*%
X9450000Y-3146000D03*
X9450000Y-2853500D03*
%TD*%
%TO.C,R4*%
X4950000Y-3138500D03*
X4950000Y-2846000D03*
%TD*%
%TO.C,R34*%
X3750000Y-3146000D03*
X3750000Y-2853500D03*
%TD*%
D12*
%TO.C,R31*%
X9741250Y-4881000D03*
X9558750Y-4881000D03*
%TD*%
D11*
%TO.C,R16*%
X9700000Y-3146000D03*
X9700000Y-2853500D03*
%TD*%
D13*
%TO.C,C19*%
X2600000Y-8600000D03*
X2790000Y-8600000D03*
%TD*%
D14*
%TO.C,U3*%
X1650000Y-6596000D03*
X1650000Y-6796000D03*
X1650000Y-6996000D03*
X1650000Y-7196000D03*
X1650000Y-7396000D03*
X1650000Y-7596000D03*
X1650000Y-7796000D03*
X1650000Y-7996000D03*
X3250000Y-7996000D03*
X3250000Y-7796000D03*
X3250000Y-7596000D03*
X3250000Y-7396000D03*
X3250000Y-7196000D03*
X3250000Y-6996000D03*
X3250000Y-6796000D03*
X3250000Y-6596000D03*
%TD*%
D15*
%TO.C,R27*%
X8657500Y-4189750D03*
X8840000Y-4189750D03*
%TD*%
D11*
%TO.C,R33*%
X4150000Y-3146000D03*
X4150000Y-2853500D03*
%TD*%
D13*
%TO.C,C14*%
X9500000Y-3589750D03*
X9690000Y-3589750D03*
%TD*%
D16*
%TO.C,L1*%
X7268250Y-5859500D03*
X7268250Y-6096500D03*
%TD*%
D11*
%TO.C,R13*%
X8950000Y-3146000D03*
X8950000Y-2853500D03*
%TD*%
D15*
%TO.C,R30*%
X9050000Y-5339750D03*
X9232500Y-5339750D03*
%TD*%
D11*
%TO.C,R32*%
X4550000Y-3138500D03*
X4550000Y-2846000D03*
%TD*%
D17*
%TO.C,U6*%
X6625750Y-5911500D03*
X6625750Y-5961500D03*
X6625750Y-6011500D03*
X6625750Y-6061500D03*
D18*
X6668250Y-6126500D03*
X6718250Y-6126500D03*
D19*
X6793250Y-6126500D03*
X6793250Y-6126500D03*
X6793250Y-5846500D03*
X6793250Y-5846500D03*
D18*
X6718250Y-5846500D03*
X6668250Y-5846500D03*
%TD*%
D13*
%TO.C,C17*%
X4060000Y-8550000D03*
X4250000Y-8550000D03*
%TD*%
D20*
%TO.C,C8*%
X6218250Y-5891500D03*
X6218250Y-5596500D03*
%TD*%
D12*
%TO.C,R18*%
X6850750Y-6891500D03*
X6668250Y-6891500D03*
%TD*%
D13*
%TO.C,C13*%
X9500000Y-4039750D03*
X9690000Y-4039750D03*
%TD*%
D15*
%TO.C,R19*%
X7068250Y-6886500D03*
X7250750Y-6886500D03*
%TD*%
D11*
%TO.C,R2*%
X7000000Y-3138500D03*
X7000000Y-2846000D03*
%TD*%
D15*
%TO.C,R29*%
X9057500Y-5039750D03*
X9240000Y-5039750D03*
%TD*%
D21*
%TO.C,C9*%
X6868250Y-6396500D03*
X7023250Y-6396500D03*
%TD*%
D22*
%TO.C,C12*%
X6218250Y-6286500D03*
X6218250Y-6096500D03*
%TD*%
D23*
%TO.C,R28*%
X9790000Y-4357250D03*
X9790000Y-4539750D03*
%TD*%
D24*
%TO.C,C7*%
X6218250Y-6506500D03*
X6218250Y-6696500D03*
%TD*%
D11*
%TO.C,R8*%
X6550000Y-3138500D03*
X6550000Y-2846000D03*
%TD*%
%TO.C,R14*%
X9200000Y-3146000D03*
X9200000Y-2853500D03*
%TD*%
%TO.C,R12*%
X8700000Y-3146000D03*
X8700000Y-2853500D03*
%TD*%
D13*
%TO.C,C15*%
X9055000Y-4039750D03*
X9245000Y-4039750D03*
%TD*%
%TO.C,C16*%
X4560000Y-8550000D03*
X4750000Y-8550000D03*
%TD*%
%TO.C,C18*%
X1940000Y-8600000D03*
X2130000Y-8600000D03*
%TD*%
D14*
%TO.C,U2*%
X3650000Y-6596000D03*
X3650000Y-6796000D03*
X3650000Y-6996000D03*
X3650000Y-7196000D03*
X3650000Y-7396000D03*
X3650000Y-7596000D03*
X3650000Y-7796000D03*
X3650000Y-7996000D03*
X5250000Y-7996000D03*
X5250000Y-7796000D03*
X5250000Y-7596000D03*
X5250000Y-7396000D03*
X5250000Y-7196000D03*
X5250000Y-6996000D03*
X5250000Y-6796000D03*
X5250000Y-6596000D03*
%TD*%
D25*
%TO.C,U5*%
X9270000Y-4450000D03*
X9230000Y-4450000D03*
X9190000Y-4450000D03*
X9150000Y-4450000D03*
X9110000Y-4450000D03*
X9070000Y-4450000D03*
D26*
X9020000Y-4500000D03*
X9020000Y-4540000D03*
X9020000Y-4580000D03*
X9020000Y-4620000D03*
X9020000Y-4660000D03*
X9020000Y-4700000D03*
D25*
X9070000Y-4750000D03*
X9110000Y-4750000D03*
X9150000Y-4750000D03*
X9190000Y-4750000D03*
X9230000Y-4750000D03*
X9270000Y-4750000D03*
D26*
X9320000Y-4700000D03*
X9320000Y-4660000D03*
X9320000Y-4620000D03*
X9320000Y-4580000D03*
X9320000Y-4540000D03*
X9320000Y-4500000D03*
%TD*%
D22*
%TO.C,C6*%
X6568250Y-6586500D03*
X6568250Y-6396500D03*
%TD*%
D23*
%TO.C,R20*%
X7359500Y-6354000D03*
X7359500Y-6536500D03*
%TD*%
D11*
%TO.C,R9*%
X7950000Y-3138500D03*
X7950000Y-2846000D03*
%TD*%
D22*
%TO.C,C11*%
X5768250Y-6086500D03*
X5768250Y-5896500D03*
%TD*%
D11*
%TO.C,R6*%
X5750000Y-3138500D03*
X5750000Y-2846000D03*
%TD*%
%TO.C,R3*%
X7400000Y-3138500D03*
X7400000Y-2846000D03*
%TD*%
%TO.C,R11*%
X8450000Y-3138500D03*
X8450000Y-2846000D03*
%TD*%
%TO.C,R5*%
X5350000Y-3146000D03*
X5350000Y-2853500D03*
%TD*%
D27*
%TO.C,C10*%
X7068250Y-6596500D03*
X6878250Y-6596500D03*
%TD*%
D11*
%TO.C,R10*%
X8200000Y-3138500D03*
X8200000Y-2846000D03*
%TD*%
%TO.C,R17*%
X9950000Y-3146000D03*
X9950000Y-2853500D03*
%TD*%
M02*
