M48
; DRILL file {KiCad 9.0.3} date 2025-07-24T22:11:27+0700
; FORMAT={-:-/ absolute / metric / decimal}
; #@! TF.CreationDate,2025-07-24T22:11:27+07:00
; #@! TF.GenerationSoftware,Kicad,Pcbnew,9.0.3
; #@! TF.FileFunction,Plated,1,2,PTH
FMAT,2
METRIC
; #@! TA.AperFunction,Plated,PTH,ViaDrill
T1C0.300
; #@! TA.AperFunction,Plated,PTH,ComponentDrill
T2C0.800
; #@! TA.AperFunction,Plated,PTH,ComponentDrill
T3C1.000
%
G90
G05
T1
X15.5Y-58.0
X15.5Y-64.0
X19.1Y-29.0
X19.1Y-31.0
X19.1Y-41.5
X20.0Y-39.0
X20.5Y-28.0
X20.5Y-34.0
X21.5Y-27.0
X22.5Y-30.5
X22.5Y-51.0
X23.0Y-23.0
X23.0Y-66.0
X25.5Y-28.0
X25.5Y-29.0
X25.5Y-74.0
X26.0Y-83.0
X26.5Y-25.5
X26.5Y-29.0
X26.5Y-39.0
X26.5Y-41.1
X26.5Y-51.0
X28.0Y-31.0
X29.0Y-28.0
X29.0Y-31.5
X29.0Y-42.5
X29.0Y-48.0
X29.6Y-29.0
X30.0Y-66.0
X30.5Y-47.5
X34.5Y-43.0
X34.5Y-70.0
X34.5Y-72.0
X34.5Y-74.0
X35.0Y-25.0
X35.0Y-32.0
X35.0Y-62.0
X35.5Y-38.0
X36.0Y-42.5
X36.0Y-46.5
X36.9Y-37.5
X37.4Y-51.0
X37.4Y-55.0
X37.5Y-30.0
X37.5Y-42.0
X39.0Y-45.5
X39.0Y-69.0
X39.5Y-42.5
X39.6Y-53.0
X41.0Y-68.0
X41.5Y-30.0
X41.5Y-52.0
X42.5Y-68.0
X43.0Y-48.5
X43.5Y-31.5
X43.5Y-42.5
X43.5Y-46.6
X43.5Y-47.5
X45.5Y-83.0
X46.0Y-45.9
X47.0Y-48.5
X47.5Y-31.5
X47.5Y-32.4
X47.5Y-34.501
X48.5Y-70.0
X48.5Y-72.0
X48.5Y-74.0
X49.5Y-33.0
X49.5Y-34.501
X51.0Y-28.799
X51.0Y-34.501
X51.0Y-49.0
X51.5Y-27.0
X51.5Y-45.0
X51.5Y-48.0
X51.8Y-28.799
X53.0Y-55.5
X53.5Y-34.501
X54.0Y-59.0
X54.5Y-32.9
X54.809Y-50.602
X55.0Y-60.5
X55.5Y-24.5
X55.5Y-27.5
X55.5Y-34.501
X56.0Y-59.0
X56.5Y-46.5
X56.5Y-55.5
X56.5Y-58.0
X57.0Y-34.501
X57.5Y-47.0
X57.5Y-63.5
X58.5Y-49.0
X59.064Y-32.1
X59.124Y-43.0
X59.5Y-28.5
X60.0Y-34.501
X62.5Y-57.5
X63.0Y-46.5
X63.0Y-49.5
X63.0Y-50.5
X63.5Y-19.5
X63.5Y-27.5
X63.895Y-54.5
X64.033Y-56.967
X64.495Y-56.1
X65.095Y-54.5
X65.5Y-62.5
X66.0Y-47.0
X69.084Y-62.416
X70.5Y-49.5
X71.0Y-53.0
X73.0Y-42.0
X73.5Y-43.0
X74.1Y-43.6
X74.5Y-54.6
X75.0Y-34.0
X75.0Y-62.5
X75.0Y-68.5
X75.122Y-51.169
X75.5Y-24.0
X75.5Y-44.6
X75.5Y-54.0
X75.826Y-50.174
X76.0Y-30.9
X76.0Y-33.5
X76.0Y-37.5
X76.0Y-48.0
X76.274Y-50.837
X76.566Y-48.566
X76.695Y-57.0
X77.0Y-49.299
X77.0Y-50.5
X77.0Y-59.0
X77.5Y-55.0
X78.0Y-48.0
X78.066Y-30.785
X78.8Y-48.005
X79.0Y-33.0
X79.0Y-54.5
X79.5Y-49.5
X80.862Y-47.943
X81.458Y-50.348
X81.5Y-48.425
X82.0Y-30.0
X82.5Y-50.5
X84.098Y-27.008
X84.5Y-18.0
X84.5Y-29.522
X84.5Y-52.0
X85.0Y-49.0
X85.5Y-44.0
X85.5Y-68.175
X85.622Y-33.578
X86.066Y-44.566
X87.0Y-44.5
X87.0Y-64.675
X87.6Y-65.5
X87.8Y-39.0
X88.0Y-44.5
X88.5Y-45.5
X88.6Y-46.367
X88.638Y-43.362
X91.45Y-40.5
X91.5Y-33.0
X92.0Y-34.0
X92.5Y-39.0
X93.5Y-42.5
X94.1Y-38.5
X94.326Y-46.572
X94.5Y-33.0
X95.0Y-45.398
X96.0Y-37.5
X97.0Y-33.0
X98.0Y-46.5
T2
X37.35Y-20.96
X37.35Y-22.96
X37.35Y-24.96
X37.5Y-35.96
X37.5Y-39.81
X39.5Y-35.96
X39.5Y-39.81
X41.4Y-20.96
X41.4Y-22.96
X41.4Y-24.96
X41.5Y-35.96
X41.5Y-39.81
X43.5Y-35.96
X43.5Y-39.81
X45.45Y-20.96
X45.45Y-22.96
X45.45Y-24.96
X45.5Y-35.96
X45.5Y-39.81
X47.5Y-35.96
X47.5Y-39.81
X49.5Y-20.96
X49.5Y-22.96
X49.5Y-24.96
X49.5Y-35.96
X49.5Y-39.81
X51.5Y-35.96
X51.5Y-39.81
X53.5Y-35.96
X53.5Y-39.81
X53.55Y-20.96
X53.55Y-22.96
X53.55Y-24.96
X55.5Y-35.96
X55.5Y-39.81
X57.5Y-35.96
X57.5Y-39.81
X57.6Y-20.96
X57.6Y-22.96
X57.6Y-24.96
X59.5Y-35.96
X59.5Y-39.81
X61.5Y-35.96
X61.5Y-39.81
X61.65Y-20.96
X61.65Y-22.96
X61.65Y-24.96
X63.5Y-35.96
X63.5Y-39.81
X65.7Y-20.96
X65.7Y-22.96
X65.7Y-24.96
X69.0Y-35.95
X69.0Y-40.0
X69.95Y-20.96
X69.95Y-22.96
X69.95Y-24.96
X71.0Y-35.95
X71.0Y-40.0
X73.0Y-35.95
X73.0Y-40.0
X74.0Y-20.96
X74.0Y-22.96
X74.0Y-24.96
X75.0Y-35.95
X75.0Y-40.0
X77.0Y-35.95
X77.0Y-40.0
X79.0Y-35.95
X79.0Y-40.0
X81.0Y-35.95
X81.0Y-40.0
X81.5Y-21.41
X81.5Y-25.46
X83.0Y-35.95
X83.0Y-40.0
X83.5Y-21.41
X83.5Y-25.46
X85.5Y-21.41
X85.5Y-25.46
X87.5Y-21.41
X87.5Y-25.46
X89.5Y-21.41
X89.5Y-25.46
X91.5Y-21.41
X91.5Y-25.46
X93.5Y-21.41
X93.5Y-25.46
X95.5Y-21.41
X95.5Y-25.46
X97.5Y-21.41
X97.5Y-25.46
T3
X16.76Y-21.1
X16.76Y-23.64
X16.76Y-26.18
X16.76Y-28.72
X16.76Y-31.26
X16.76Y-33.8
X16.76Y-36.34
X16.76Y-38.88
X16.76Y-41.42
X16.76Y-43.96
X16.76Y-46.5
X16.76Y-49.04
X16.76Y-51.58
X16.76Y-54.12
X16.76Y-56.66
X32.0Y-21.1
X32.0Y-23.64
X32.0Y-26.18
X32.0Y-28.72
X32.0Y-31.26
X32.0Y-33.8
X32.0Y-36.34
X32.0Y-38.88
X32.0Y-41.42
X32.0Y-43.96
X32.0Y-46.5
X32.0Y-49.04
X32.0Y-51.58
X32.0Y-54.12
X32.0Y-56.66
M30
