%TF.GenerationSoftware,KiCad,Pcbnew,9.0.3*%
%TF.CreationDate,2025-07-24T22:11:21+07:00*%
%TF.ProjectId,flying thing that crashes,666c7969-6e67-4207-9468-696e67207468,rev?*%
%TF.SameCoordinates,Original*%
%TF.FileFunction,Soldermask,Bot*%
%TF.FilePolarity,Negative*%
%FSLAX45Y45*%
G04 Gerber Fmt 4.5, Leading zero omitted, Abs format (unit mm)*
G04 Created by KiCad (PCBNEW 9.0.3) date 2025-07-24 22:11:21*
%MOMM*%
%LPD*%
G01*
G04 APERTURE LIST*
G04 Aperture macros list*
%AMRoundRect*
0 Rectangle with rounded corners*
0 $1 Rounding radius*
0 $2 $3 $4 $5 $6 $7 $8 $9 X,Y pos of 4 corners*
0 Add a 4 corners polygon primitive as box body*
4,1,4,$2,$3,$4,$5,$6,$7,$8,$9,$2,$3,0*
0 Add four circle primitives for the rounded corners*
1,1,$1+$1,$2,$3*
1,1,$1+$1,$4,$5*
1,1,$1+$1,$6,$7*
1,1,$1+$1,$8,$9*
0 Add four rect primitives between the rounded corners*
20,1,$1+$1,$2,$3,$4,$5,0*
20,1,$1+$1,$4,$5,$6,$7,0*
20,1,$1+$1,$6,$7,$8,$9,0*
20,1,$1+$1,$8,$9,$2,$3,0*%
%AMFreePoly0*
4,1,23,0.500000,-0.750000,0.000000,-0.750000,0.000000,-0.745722,-0.065263,-0.745722,-0.191342,-0.711940,-0.304381,-0.646677,-0.396677,-0.554381,-0.461940,-0.441342,-0.495722,-0.315263,-0.495722,-0.250000,-0.500000,-0.250000,-0.500000,0.250000,-0.495722,0.250000,-0.495722,0.315263,-0.461940,0.441342,-0.396677,0.554381,-0.304381,0.646677,-0.191342,0.711940,-0.065263,0.745722,0.000000,0.745722,
0.000000,0.750000,0.500000,0.750000,0.500000,-0.750000,0.500000,-0.750000,$1*%
%AMFreePoly1*
4,1,23,0.000000,0.745722,0.065263,0.745722,0.191342,0.711940,0.304381,0.646677,0.396677,0.554381,0.461940,0.441342,0.495722,0.315263,0.495722,0.250000,0.500000,0.250000,0.500000,-0.250000,0.495722,-0.250000,0.495722,-0.315263,0.461940,-0.441342,0.396677,-0.554381,0.304381,-0.646677,0.191342,-0.711940,0.065263,-0.745722,0.000000,-0.745722,0.000000,-0.750000,-0.500000,-0.750000,
-0.500000,0.750000,0.000000,0.750000,0.000000,0.745722,0.000000,0.745722,$1*%
G04 Aperture macros list end*
%ADD10R,1.350000X1.350000*%
%ADD11C,1.350000*%
%ADD12R,1.600000X1.600000*%
%ADD13O,1.600000X1.600000*%
%ADD14RoundRect,0.225000X0.250000X-0.225000X0.250000X0.225000X-0.250000X0.225000X-0.250000X-0.225000X0*%
%ADD15RoundRect,0.250000X0.262500X0.450000X-0.262500X0.450000X-0.262500X-0.450000X0.262500X-0.450000X0*%
%ADD16RoundRect,0.250000X0.325000X0.650000X-0.325000X0.650000X-0.325000X-0.650000X0.325000X-0.650000X0*%
%ADD17FreePoly0,90.000000*%
%ADD18FreePoly1,90.000000*%
%ADD19RoundRect,0.225000X0.225000X0.250000X-0.225000X0.250000X-0.225000X-0.250000X0.225000X-0.250000X0*%
%ADD20RoundRect,0.250000X0.625000X-0.312500X0.625000X0.312500X-0.625000X0.312500X-0.625000X-0.312500X0*%
%ADD21RoundRect,0.100000X0.100000X-0.637500X0.100000X0.637500X-0.100000X0.637500X-0.100000X-0.637500X0*%
%ADD22RoundRect,0.375000X0.625000X0.375000X-0.625000X0.375000X-0.625000X-0.375000X0.625000X-0.375000X0*%
%ADD23RoundRect,0.500000X0.500000X1.400000X-0.500000X1.400000X-0.500000X-1.400000X0.500000X-1.400000X0*%
G04 APERTURE END LIST*
%TO.C,JP5*%
G36*
X4575000Y-4911000D02*
G01*
X4425000Y-4911000D01*
X4425000Y-4881000D01*
X4575000Y-4881000D01*
X4575000Y-4911000D01*
G37*
%TO.C,JP3*%
G36*
X5375000Y-4911000D02*
G01*
X5225000Y-4911000D01*
X5225000Y-4881000D01*
X5375000Y-4881000D01*
X5375000Y-4911000D01*
G37*
%TO.C,JP4*%
G36*
X4975000Y-4911000D02*
G01*
X4825000Y-4911000D01*
X4825000Y-4881000D01*
X4975000Y-4881000D01*
X4975000Y-4911000D01*
G37*
%TO.C,JP6*%
G36*
X4175000Y-4911000D02*
G01*
X4025000Y-4911000D01*
X4025000Y-4881000D01*
X4175000Y-4881000D01*
X4175000Y-4911000D01*
G37*
%TO.C,JP2*%
G36*
X5740000Y-4911000D02*
G01*
X5590000Y-4911000D01*
X5590000Y-4881000D01*
X5740000Y-4881000D01*
X5740000Y-4911000D01*
G37*
%TO.C,JP1*%
G36*
X6125000Y-4911000D02*
G01*
X5975000Y-4911000D01*
X5975000Y-4881000D01*
X6125000Y-4881000D01*
X6125000Y-4911000D01*
G37*
%TD*%
D10*
%TO.C,M5*%
X4950000Y-2496000D03*
D11*
X4950000Y-2296000D03*
X4950000Y-2096000D03*
%TD*%
D10*
%TO.C,J1*%
X6995000Y-2096000D03*
D11*
X6995000Y-2296000D03*
X6995000Y-2496000D03*
%TD*%
D10*
%TO.C,J2*%
X7400000Y-2096000D03*
D11*
X7400000Y-2296000D03*
X7400000Y-2496000D03*
%TD*%
D10*
%TO.C,M3*%
X5760000Y-2496000D03*
D11*
X5760000Y-2296000D03*
X5760000Y-2096000D03*
%TD*%
D10*
%TO.C,M6*%
X4545000Y-2496000D03*
D11*
X4545000Y-2296000D03*
X4545000Y-2096000D03*
%TD*%
D10*
%TO.C,J7*%
X3750000Y-3981000D03*
D11*
X3950000Y-3981000D03*
X4150000Y-3981000D03*
X4350000Y-3981000D03*
X4550000Y-3981000D03*
X4750000Y-3981000D03*
X4950000Y-3981000D03*
X5150000Y-3981000D03*
X5350000Y-3981000D03*
X5550000Y-3981000D03*
X5750000Y-3981000D03*
X5950000Y-3981000D03*
X6150000Y-3981000D03*
X6350000Y-3981000D03*
%TD*%
D10*
%TO.C,M1*%
X6570000Y-2496000D03*
D11*
X6570000Y-2296000D03*
X6570000Y-2096000D03*
%TD*%
D12*
%TO.C,A1*%
X3200000Y-5666000D03*
D13*
X3200000Y-5412000D03*
X3200000Y-5158000D03*
X3200000Y-4904000D03*
X3200000Y-4650000D03*
X3200000Y-4396000D03*
X3200000Y-4142000D03*
X3200000Y-3888000D03*
X3200000Y-3634000D03*
X3200000Y-3380000D03*
X3200000Y-3126000D03*
X3200000Y-2872000D03*
X3200000Y-2618000D03*
X3200000Y-2364000D03*
X3200000Y-2110000D03*
X1676000Y-2110000D03*
X1676000Y-2364000D03*
X1676000Y-2618000D03*
X1676000Y-2872000D03*
X1676000Y-3126000D03*
X1676000Y-3380000D03*
X1676000Y-3634000D03*
X1676000Y-3888000D03*
X1676000Y-4142000D03*
X1676000Y-4396000D03*
X1676000Y-4650000D03*
X1676000Y-4904000D03*
X1676000Y-5158000D03*
X1676000Y-5412000D03*
X1676000Y-5666000D03*
%TD*%
D10*
%TO.C,M7*%
X4140000Y-2496000D03*
D11*
X4140000Y-2296000D03*
X4140000Y-2096000D03*
%TD*%
D10*
%TO.C,J8*%
X3750000Y-3596000D03*
D11*
X3950000Y-3596000D03*
X4150000Y-3596000D03*
X4350000Y-3596000D03*
X4550000Y-3596000D03*
X4750000Y-3596000D03*
X4950000Y-3596000D03*
X5150000Y-3596000D03*
X5350000Y-3596000D03*
X5550000Y-3596000D03*
X5750000Y-3596000D03*
X5950000Y-3596000D03*
X6150000Y-3596000D03*
X6350000Y-3596000D03*
%TD*%
D10*
%TO.C,J5*%
X6900000Y-4000000D03*
D11*
X7100000Y-4000000D03*
X7300000Y-4000000D03*
X7500000Y-4000000D03*
X7700000Y-4000000D03*
X7900000Y-4000000D03*
X8100000Y-4000000D03*
X8300000Y-4000000D03*
%TD*%
D10*
%TO.C,M8*%
X3735000Y-2496000D03*
D11*
X3735000Y-2296000D03*
X3735000Y-2096000D03*
%TD*%
D10*
%TO.C,J4*%
X8150000Y-2141000D03*
D11*
X8350000Y-2141000D03*
X8550000Y-2141000D03*
X8750000Y-2141000D03*
X8950000Y-2141000D03*
X9150000Y-2141000D03*
X9350000Y-2141000D03*
X9550000Y-2141000D03*
X9750000Y-2141000D03*
%TD*%
D10*
%TO.C,M2*%
X6165000Y-2496000D03*
D11*
X6165000Y-2296000D03*
X6165000Y-2096000D03*
%TD*%
D10*
%TO.C,J6*%
X6900000Y-3595000D03*
D11*
X7100000Y-3595000D03*
X7300000Y-3595000D03*
X7500000Y-3595000D03*
X7700000Y-3595000D03*
X7900000Y-3595000D03*
X8100000Y-3595000D03*
X8300000Y-3595000D03*
%TD*%
D10*
%TO.C,J3*%
X8150000Y-2546000D03*
D11*
X8350000Y-2546000D03*
X8550000Y-2546000D03*
X8750000Y-2546000D03*
X8950000Y-2546000D03*
X9150000Y-2546000D03*
X9350000Y-2546000D03*
X9550000Y-2546000D03*
X9750000Y-2546000D03*
%TD*%
D10*
%TO.C,M4*%
X5355000Y-2496000D03*
D11*
X5355000Y-2296000D03*
X5355000Y-2096000D03*
%TD*%
D14*
%TO.C,C1*%
X8350000Y-5057500D03*
X8350000Y-4902500D03*
%TD*%
D15*
%TO.C,R22*%
X6000000Y-4481000D03*
X5817500Y-4481000D03*
%TD*%
D16*
%TO.C,C5*%
X8850000Y-7267500D03*
X8555000Y-7267500D03*
%TD*%
D17*
%TO.C,JP5*%
X4500000Y-4961000D03*
D18*
X4500000Y-4831000D03*
%TD*%
D19*
%TO.C,C4*%
X8800000Y-7767500D03*
X8645000Y-7767500D03*
%TD*%
D20*
%TO.C,R1*%
X7050000Y-5095000D03*
X7050000Y-4802500D03*
%TD*%
D17*
%TO.C,JP3*%
X5300000Y-4961000D03*
D18*
X5300000Y-4831000D03*
%TD*%
D17*
%TO.C,JP4*%
X4900000Y-4961000D03*
D18*
X4900000Y-4831000D03*
%TD*%
D17*
%TO.C,JP6*%
X4100000Y-4961000D03*
D18*
X4100000Y-4831000D03*
%TD*%
D16*
%TO.C,C3*%
X8845000Y-5717500D03*
X8550000Y-5717500D03*
%TD*%
D15*
%TO.C,R25*%
X4350000Y-4481000D03*
X4167500Y-4481000D03*
%TD*%
D17*
%TO.C,JP2*%
X5665000Y-4961000D03*
D18*
X5665000Y-4831000D03*
%TD*%
D21*
%TO.C,U1*%
X8122500Y-5238750D03*
X8057500Y-5238750D03*
X7992500Y-5238750D03*
X7927500Y-5238750D03*
X7862500Y-5238750D03*
X7797500Y-5238750D03*
X7732500Y-5238750D03*
X7667500Y-5238750D03*
X7602500Y-5238750D03*
X7537500Y-5238750D03*
X7472500Y-5238750D03*
X7407500Y-5238750D03*
X7342500Y-5238750D03*
X7277500Y-5238750D03*
X7277500Y-4666250D03*
X7342500Y-4666250D03*
X7407500Y-4666250D03*
X7472500Y-4666250D03*
X7537500Y-4666250D03*
X7602500Y-4666250D03*
X7667500Y-4666250D03*
X7732500Y-4666250D03*
X7797500Y-4666250D03*
X7862500Y-4666250D03*
X7927500Y-4666250D03*
X7992500Y-4666250D03*
X8057500Y-4666250D03*
X8122500Y-4666250D03*
%TD*%
D19*
%TO.C,C2*%
X8800000Y-5367500D03*
X8645000Y-5367500D03*
%TD*%
D22*
%TO.C,U4*%
X9015000Y-6237500D03*
X9015000Y-6467500D03*
D23*
X8385000Y-6467500D03*
D22*
X9015000Y-6697500D03*
%TD*%
D15*
%TO.C,R26*%
X3800000Y-4481000D03*
X3617500Y-4481000D03*
%TD*%
%TO.C,R24*%
X4950000Y-4481000D03*
X4767500Y-4481000D03*
%TD*%
%TO.C,R21*%
X6500000Y-4481000D03*
X6317500Y-4481000D03*
%TD*%
%TO.C,R23*%
X5500000Y-4481000D03*
X5317500Y-4481000D03*
%TD*%
D17*
%TO.C,JP1*%
X6050000Y-4961000D03*
D18*
X6050000Y-4831000D03*
%TD*%
M02*
