%TF.GenerationSoftware,KiCad,Pcbnew,9.0.3*%
%TF.CreationDate,2025-07-24T22:11:21+07:00*%
%TF.ProjectId,flying thing that crashes,666c7969-6e67-4207-9468-696e67207468,rev?*%
%TF.SameCoordinates,Original*%
%TF.FileFunction,Soldermask,Top*%
%TF.FilePolarity,Negative*%
%FSLAX45Y45*%
G04 Gerber Fmt 4.5, Leading zero omitted, Abs format (unit mm)*
G04 Created by KiCad (PCBNEW 9.0.3) date 2025-07-24 22:11:21*
%MOMM*%
%LPD*%
G01*
G04 APERTURE LIST*
G04 Aperture macros list*
%AMRoundRect*
0 Rectangle with rounded corners*
0 $1 Rounding radius*
0 $2 $3 $4 $5 $6 $7 $8 $9 X,Y pos of 4 corners*
0 Add a 4 corners polygon primitive as box body*
4,1,4,$2,$3,$4,$5,$6,$7,$8,$9,$2,$3,0*
0 Add four circle primitives for the rounded corners*
1,1,$1+$1,$2,$3*
1,1,$1+$1,$4,$5*
1,1,$1+$1,$6,$7*
1,1,$1+$1,$8,$9*
0 Add four rect primitives between the rounded corners*
20,1,$1+$1,$2,$3,$4,$5,0*
20,1,$1+$1,$4,$5,$6,$7,0*
20,1,$1+$1,$6,$7,$8,$9,0*
20,1,$1+$1,$8,$9,$2,$3,0*%
G04 Aperture macros list end*
%ADD10C,0.000000*%
%ADD11RoundRect,0.250000X0.625000X-0.312500X0.625000X0.312500X-0.625000X0.312500X-0.625000X-0.312500X0*%
%ADD12R,1.350000X1.350000*%
%ADD13C,1.350000*%
%ADD14RoundRect,0.250000X0.262500X0.450000X-0.262500X0.450000X-0.262500X-0.450000X0.262500X-0.450000X0*%
%ADD15RoundRect,0.250000X-0.250000X-0.475000X0.250000X-0.475000X0.250000X0.475000X-0.250000X0.475000X0*%
%ADD16R,2.000000X1.500000*%
%ADD17RoundRect,0.250000X-0.262500X-0.450000X0.262500X-0.450000X0.262500X0.450000X-0.262500X0.450000X0*%
%ADD18RoundRect,0.102000X-1.700000X0.490000X-1.700000X-0.490000X1.700000X-0.490000X1.700000X0.490000X0*%
%ADD19R,1.600000X1.600000*%
%ADD20O,1.600000X1.600000*%
%ADD21R,0.599999X0.240000*%
%ADD22R,0.240000X0.599999*%
%ADD23R,0.850001X0.700001*%
%ADD24R,1.450000X0.349999*%
%ADD25R,1.799999X0.349999*%
%ADD26RoundRect,0.250000X0.650000X-0.325000X0.650000X0.325000X-0.650000X0.325000X-0.650000X-0.325000X0*%
%ADD27RoundRect,0.225000X-0.225000X-0.250000X0.225000X-0.250000X0.225000X0.250000X-0.225000X0.250000X0*%
%ADD28RoundRect,0.250000X0.475000X-0.250000X0.475000X0.250000X-0.475000X0.250000X-0.475000X-0.250000X0*%
%ADD29RoundRect,0.250000X-0.450000X0.262500X-0.450000X-0.262500X0.450000X-0.262500X0.450000X0.262500X0*%
%ADD30RoundRect,0.250000X-0.475000X0.250000X-0.475000X-0.250000X0.475000X-0.250000X0.475000X0.250000X0*%
%ADD31RoundRect,0.050000X-0.050000X0.225000X-0.050000X-0.225000X0.050000X-0.225000X0.050000X0.225000X0*%
%ADD32RoundRect,0.050000X-0.225000X-0.050000X0.225000X-0.050000X0.225000X0.050000X-0.225000X0.050000X0*%
%ADD33RoundRect,0.250000X0.250000X0.475000X-0.250000X0.475000X-0.250000X-0.475000X0.250000X-0.475000X0*%
G04 APERTURE END LIST*
D10*
%TO.C,U6*%
G36*
X6826725Y-5851596D02*
G01*
X6827664Y-5851881D01*
X6828528Y-5852343D01*
X6829286Y-5852965D01*
X6829907Y-5853722D01*
X6830370Y-5854587D01*
X6830654Y-5855525D01*
X6830750Y-5856500D01*
X6830750Y-5871500D01*
X6830654Y-5872476D01*
X6830370Y-5873414D01*
X6829907Y-5874278D01*
X6829286Y-5875036D01*
X6828528Y-5875657D01*
X6827664Y-5876119D01*
X6826725Y-5876404D01*
X6825750Y-5876500D01*
X6760750Y-5876500D01*
X6759775Y-5876404D01*
X6758837Y-5876119D01*
X6757972Y-5875657D01*
X6757215Y-5875036D01*
X6756593Y-5874278D01*
X6756131Y-5873414D01*
X6755846Y-5872476D01*
X6755750Y-5871500D01*
X6755750Y-5856500D01*
X6755846Y-5855525D01*
X6756131Y-5854587D01*
X6756593Y-5853722D01*
X6757215Y-5852965D01*
X6757972Y-5852343D01*
X6758837Y-5851881D01*
X6759775Y-5851596D01*
X6760750Y-5851500D01*
X6825750Y-5851500D01*
X6826725Y-5851596D01*
G37*
G36*
X6826725Y-6096596D02*
G01*
X6827664Y-6096880D01*
X6828528Y-6097343D01*
X6829286Y-6097964D01*
X6829907Y-6098722D01*
X6830370Y-6099586D01*
X6830654Y-6100524D01*
X6830750Y-6101500D01*
X6830750Y-6116500D01*
X6830654Y-6117475D01*
X6830370Y-6118413D01*
X6829907Y-6119278D01*
X6829286Y-6120035D01*
X6828528Y-6120657D01*
X6827664Y-6121119D01*
X6826725Y-6121404D01*
X6825750Y-6121500D01*
X6760750Y-6121500D01*
X6759775Y-6121404D01*
X6758837Y-6121119D01*
X6757972Y-6120657D01*
X6757215Y-6120035D01*
X6756593Y-6119278D01*
X6756131Y-6118413D01*
X6755846Y-6117475D01*
X6755750Y-6116500D01*
X6755750Y-6101500D01*
X6755846Y-6100524D01*
X6756131Y-6099586D01*
X6756593Y-6098722D01*
X6757215Y-6097964D01*
X6757972Y-6097343D01*
X6758837Y-6096880D01*
X6759775Y-6096596D01*
X6760750Y-6096500D01*
X6825750Y-6096500D01*
X6826725Y-6096596D01*
G37*
G36*
X6776725Y-6096596D02*
G01*
X6777663Y-6096880D01*
X6778528Y-6097343D01*
X6779285Y-6097965D01*
X6779907Y-6098722D01*
X6780369Y-6099587D01*
X6780654Y-6100525D01*
X6780750Y-6101500D01*
X6780750Y-6151500D01*
X6780654Y-6152475D01*
X6780369Y-6153413D01*
X6779907Y-6154278D01*
X6779285Y-6155035D01*
X6778528Y-6155657D01*
X6777663Y-6156119D01*
X6776725Y-6156404D01*
X6775750Y-6156500D01*
X6760750Y-6156500D01*
X6759774Y-6156404D01*
X6758836Y-6156119D01*
X6757972Y-6155657D01*
X6757214Y-6155035D01*
X6756593Y-6154278D01*
X6756131Y-6153413D01*
X6755846Y-6152475D01*
X6755750Y-6151500D01*
X6755750Y-6101500D01*
X6755846Y-6100525D01*
X6756131Y-6099587D01*
X6756593Y-6098722D01*
X6757214Y-6097965D01*
X6757972Y-6097343D01*
X6758836Y-6096880D01*
X6759774Y-6096596D01*
X6760750Y-6096500D01*
X6775750Y-6096500D01*
X6776725Y-6096596D01*
G37*
G36*
X6776725Y-5816596D02*
G01*
X6777663Y-5816881D01*
X6778528Y-5817343D01*
X6779285Y-5817965D01*
X6779907Y-5818722D01*
X6780369Y-5819587D01*
X6780654Y-5820525D01*
X6780750Y-5821500D01*
X6780750Y-5871500D01*
X6780654Y-5872475D01*
X6780369Y-5873413D01*
X6779907Y-5874278D01*
X6779285Y-5875035D01*
X6778528Y-5875657D01*
X6777663Y-5876119D01*
X6776725Y-5876404D01*
X6775750Y-5876500D01*
X6760750Y-5876500D01*
X6759774Y-5876404D01*
X6758836Y-5876119D01*
X6757972Y-5875657D01*
X6757214Y-5875035D01*
X6756593Y-5874278D01*
X6756131Y-5873413D01*
X6755846Y-5872475D01*
X6755750Y-5871500D01*
X6755750Y-5821500D01*
X6755846Y-5820525D01*
X6756131Y-5819587D01*
X6756593Y-5818722D01*
X6757214Y-5817965D01*
X6757972Y-5817343D01*
X6758836Y-5816881D01*
X6759774Y-5816596D01*
X6760750Y-5816500D01*
X6775750Y-5816500D01*
X6776725Y-5816596D01*
G37*
G36*
X6826726Y-6096596D02*
G01*
X6827664Y-6096880D01*
X6828528Y-6097343D01*
X6829286Y-6097965D01*
X6829908Y-6098722D01*
X6830370Y-6099587D01*
X6830654Y-6100525D01*
X6830750Y-6101500D01*
X6830750Y-6151500D01*
X6830654Y-6152475D01*
X6830370Y-6153413D01*
X6829908Y-6154278D01*
X6829286Y-6155035D01*
X6828528Y-6155657D01*
X6827664Y-6156119D01*
X6826726Y-6156404D01*
X6825750Y-6156500D01*
X6810750Y-6156500D01*
X6809775Y-6156404D01*
X6808837Y-6156119D01*
X6807972Y-6155657D01*
X6807215Y-6155035D01*
X6806593Y-6154278D01*
X6806131Y-6153413D01*
X6805846Y-6152475D01*
X6805750Y-6151500D01*
X6805750Y-6101500D01*
X6805846Y-6100525D01*
X6806131Y-6099587D01*
X6806593Y-6098722D01*
X6807215Y-6097965D01*
X6807972Y-6097343D01*
X6808837Y-6096880D01*
X6809775Y-6096596D01*
X6810750Y-6096500D01*
X6825750Y-6096500D01*
X6826726Y-6096596D01*
G37*
G36*
X6826726Y-5816596D02*
G01*
X6827664Y-5816881D01*
X6828528Y-5817343D01*
X6829286Y-5817965D01*
X6829908Y-5818722D01*
X6830370Y-5819587D01*
X6830654Y-5820525D01*
X6830750Y-5821500D01*
X6830750Y-5871500D01*
X6830654Y-5872475D01*
X6830370Y-5873413D01*
X6829908Y-5874278D01*
X6829286Y-5875035D01*
X6828528Y-5875657D01*
X6827664Y-5876119D01*
X6826726Y-5876404D01*
X6825750Y-5876500D01*
X6810750Y-5876500D01*
X6809775Y-5876404D01*
X6808837Y-5876119D01*
X6807972Y-5875657D01*
X6807215Y-5875035D01*
X6806593Y-5874278D01*
X6806131Y-5873413D01*
X6805846Y-5872475D01*
X6805750Y-5871500D01*
X6805750Y-5821500D01*
X6805846Y-5820525D01*
X6806131Y-5819587D01*
X6806593Y-5818722D01*
X6807215Y-5817965D01*
X6807972Y-5817343D01*
X6808837Y-5816881D01*
X6809775Y-5816596D01*
X6810750Y-5816500D01*
X6825750Y-5816500D01*
X6826726Y-5816596D01*
G37*
%TD*%
D11*
%TO.C,R7*%
X6150000Y-3146000D03*
X6150000Y-2853500D03*
%TD*%
D12*
%TO.C,M5*%
X4950000Y-2496000D03*
D13*
X4950000Y-2296000D03*
X4950000Y-2096000D03*
%TD*%
D11*
%TO.C,R15*%
X9450000Y-3146000D03*
X9450000Y-2853500D03*
%TD*%
%TO.C,R4*%
X4950000Y-3138500D03*
X4950000Y-2846000D03*
%TD*%
%TO.C,R34*%
X3750000Y-3146000D03*
X3750000Y-2853500D03*
%TD*%
D12*
%TO.C,J1*%
X6995000Y-2096000D03*
D13*
X6995000Y-2296000D03*
X6995000Y-2496000D03*
%TD*%
D14*
%TO.C,R31*%
X9741250Y-4881000D03*
X9558750Y-4881000D03*
%TD*%
D11*
%TO.C,R16*%
X9700000Y-3146000D03*
X9700000Y-2853500D03*
%TD*%
D15*
%TO.C,C19*%
X2600000Y-8600000D03*
X2790000Y-8600000D03*
%TD*%
D12*
%TO.C,J2*%
X7400000Y-2096000D03*
D13*
X7400000Y-2296000D03*
X7400000Y-2496000D03*
%TD*%
D16*
%TO.C,U3*%
X1650000Y-6596000D03*
X1650000Y-6796000D03*
X1650000Y-6996000D03*
X1650000Y-7196000D03*
X1650000Y-7396000D03*
X1650000Y-7596000D03*
X1650000Y-7796000D03*
X1650000Y-7996000D03*
X3250000Y-7996000D03*
X3250000Y-7796000D03*
X3250000Y-7596000D03*
X3250000Y-7396000D03*
X3250000Y-7196000D03*
X3250000Y-6996000D03*
X3250000Y-6796000D03*
X3250000Y-6596000D03*
%TD*%
D17*
%TO.C,R27*%
X8657500Y-4189750D03*
X8840000Y-4189750D03*
%TD*%
D11*
%TO.C,R33*%
X4150000Y-3146000D03*
X4150000Y-2853500D03*
%TD*%
D15*
%TO.C,C14*%
X9500000Y-3589750D03*
X9690000Y-3589750D03*
%TD*%
D18*
%TO.C,L1*%
X7268250Y-5859500D03*
X7268250Y-6096500D03*
%TD*%
D12*
%TO.C,M3*%
X5760000Y-2496000D03*
D13*
X5760000Y-2296000D03*
X5760000Y-2096000D03*
%TD*%
D11*
%TO.C,R13*%
X8950000Y-3146000D03*
X8950000Y-2853500D03*
%TD*%
D12*
%TO.C,M6*%
X4545000Y-2496000D03*
D13*
X4545000Y-2296000D03*
X4545000Y-2096000D03*
%TD*%
D17*
%TO.C,R30*%
X9050000Y-5339750D03*
X9232500Y-5339750D03*
%TD*%
D12*
%TO.C,J7*%
X3750000Y-3981000D03*
D13*
X3950000Y-3981000D03*
X4150000Y-3981000D03*
X4350000Y-3981000D03*
X4550000Y-3981000D03*
X4750000Y-3981000D03*
X4950000Y-3981000D03*
X5150000Y-3981000D03*
X5350000Y-3981000D03*
X5550000Y-3981000D03*
X5750000Y-3981000D03*
X5950000Y-3981000D03*
X6150000Y-3981000D03*
X6350000Y-3981000D03*
%TD*%
D11*
%TO.C,R32*%
X4550000Y-3138500D03*
X4550000Y-2846000D03*
%TD*%
D12*
%TO.C,M1*%
X6570000Y-2496000D03*
D13*
X6570000Y-2296000D03*
X6570000Y-2096000D03*
%TD*%
D19*
%TO.C,A1*%
X3200000Y-5666000D03*
D20*
X3200000Y-5412000D03*
X3200000Y-5158000D03*
X3200000Y-4904000D03*
X3200000Y-4650000D03*
X3200000Y-4396000D03*
X3200000Y-4142000D03*
X3200000Y-3888000D03*
X3200000Y-3634000D03*
X3200000Y-3380000D03*
X3200000Y-3126000D03*
X3200000Y-2872000D03*
X3200000Y-2618000D03*
X3200000Y-2364000D03*
X3200000Y-2110000D03*
X1676000Y-2110000D03*
X1676000Y-2364000D03*
X1676000Y-2618000D03*
X1676000Y-2872000D03*
X1676000Y-3126000D03*
X1676000Y-3380000D03*
X1676000Y-3634000D03*
X1676000Y-3888000D03*
X1676000Y-4142000D03*
X1676000Y-4396000D03*
X1676000Y-4650000D03*
X1676000Y-4904000D03*
X1676000Y-5158000D03*
X1676000Y-5412000D03*
X1676000Y-5666000D03*
%TD*%
D21*
%TO.C,U6*%
X6625750Y-5911500D03*
X6625750Y-5961500D03*
X6625750Y-6011500D03*
X6625750Y-6061500D03*
D22*
X6668250Y-6126500D03*
X6718250Y-6126500D03*
D23*
X6793250Y-6126500D03*
X6793250Y-6126500D03*
D24*
X6818250Y-6036500D03*
D25*
X6800750Y-5986500D03*
D24*
X6818250Y-5936500D03*
D23*
X6793250Y-5846500D03*
X6793250Y-5846500D03*
D22*
X6718250Y-5846500D03*
X6668250Y-5846500D03*
%TD*%
D15*
%TO.C,C17*%
X4060000Y-8550000D03*
X4250000Y-8550000D03*
%TD*%
D26*
%TO.C,C8*%
X6218250Y-5891500D03*
X6218250Y-5596500D03*
%TD*%
D14*
%TO.C,R18*%
X6850750Y-6891500D03*
X6668250Y-6891500D03*
%TD*%
D12*
%TO.C,M7*%
X4140000Y-2496000D03*
D13*
X4140000Y-2296000D03*
X4140000Y-2096000D03*
%TD*%
D15*
%TO.C,C13*%
X9500000Y-4039750D03*
X9690000Y-4039750D03*
%TD*%
D17*
%TO.C,R19*%
X7068250Y-6886500D03*
X7250750Y-6886500D03*
%TD*%
D11*
%TO.C,R2*%
X7000000Y-3138500D03*
X7000000Y-2846000D03*
%TD*%
D17*
%TO.C,R29*%
X9057500Y-5039750D03*
X9240000Y-5039750D03*
%TD*%
D12*
%TO.C,J8*%
X3750000Y-3596000D03*
D13*
X3950000Y-3596000D03*
X4150000Y-3596000D03*
X4350000Y-3596000D03*
X4550000Y-3596000D03*
X4750000Y-3596000D03*
X4950000Y-3596000D03*
X5150000Y-3596000D03*
X5350000Y-3596000D03*
X5550000Y-3596000D03*
X5750000Y-3596000D03*
X5950000Y-3596000D03*
X6150000Y-3596000D03*
X6350000Y-3596000D03*
%TD*%
D27*
%TO.C,C9*%
X6868250Y-6396500D03*
X7023250Y-6396500D03*
%TD*%
D28*
%TO.C,C12*%
X6218250Y-6286500D03*
X6218250Y-6096500D03*
%TD*%
D29*
%TO.C,R28*%
X9790000Y-4357250D03*
X9790000Y-4539750D03*
%TD*%
D30*
%TO.C,C7*%
X6218250Y-6506500D03*
X6218250Y-6696500D03*
%TD*%
D11*
%TO.C,R8*%
X6550000Y-3138500D03*
X6550000Y-2846000D03*
%TD*%
%TO.C,R14*%
X9200000Y-3146000D03*
X9200000Y-2853500D03*
%TD*%
D12*
%TO.C,J5*%
X6900000Y-4000000D03*
D13*
X7100000Y-4000000D03*
X7300000Y-4000000D03*
X7500000Y-4000000D03*
X7700000Y-4000000D03*
X7900000Y-4000000D03*
X8100000Y-4000000D03*
X8300000Y-4000000D03*
%TD*%
D11*
%TO.C,R12*%
X8700000Y-3146000D03*
X8700000Y-2853500D03*
%TD*%
D12*
%TO.C,M8*%
X3735000Y-2496000D03*
D13*
X3735000Y-2296000D03*
X3735000Y-2096000D03*
%TD*%
D15*
%TO.C,C15*%
X9055000Y-4039750D03*
X9245000Y-4039750D03*
%TD*%
%TO.C,C16*%
X4560000Y-8550000D03*
X4750000Y-8550000D03*
%TD*%
%TO.C,C18*%
X1940000Y-8600000D03*
X2130000Y-8600000D03*
%TD*%
D16*
%TO.C,U2*%
X3650000Y-6596000D03*
X3650000Y-6796000D03*
X3650000Y-6996000D03*
X3650000Y-7196000D03*
X3650000Y-7396000D03*
X3650000Y-7596000D03*
X3650000Y-7796000D03*
X3650000Y-7996000D03*
X5250000Y-7996000D03*
X5250000Y-7796000D03*
X5250000Y-7596000D03*
X5250000Y-7396000D03*
X5250000Y-7196000D03*
X5250000Y-6996000D03*
X5250000Y-6796000D03*
X5250000Y-6596000D03*
%TD*%
D31*
%TO.C,U5*%
X9270000Y-4450000D03*
X9230000Y-4450000D03*
X9190000Y-4450000D03*
X9150000Y-4450000D03*
X9110000Y-4450000D03*
X9070000Y-4450000D03*
D32*
X9020000Y-4500000D03*
X9020000Y-4540000D03*
X9020000Y-4580000D03*
X9020000Y-4620000D03*
X9020000Y-4660000D03*
X9020000Y-4700000D03*
D31*
X9070000Y-4750000D03*
X9110000Y-4750000D03*
X9150000Y-4750000D03*
X9190000Y-4750000D03*
X9230000Y-4750000D03*
X9270000Y-4750000D03*
D32*
X9320000Y-4700000D03*
X9320000Y-4660000D03*
X9320000Y-4620000D03*
X9320000Y-4580000D03*
X9320000Y-4540000D03*
X9320000Y-4500000D03*
%TD*%
D28*
%TO.C,C6*%
X6568250Y-6586500D03*
X6568250Y-6396500D03*
%TD*%
D12*
%TO.C,J4*%
X8150000Y-2141000D03*
D13*
X8350000Y-2141000D03*
X8550000Y-2141000D03*
X8750000Y-2141000D03*
X8950000Y-2141000D03*
X9150000Y-2141000D03*
X9350000Y-2141000D03*
X9550000Y-2141000D03*
X9750000Y-2141000D03*
%TD*%
D29*
%TO.C,R20*%
X7359500Y-6354000D03*
X7359500Y-6536500D03*
%TD*%
D12*
%TO.C,M2*%
X6165000Y-2496000D03*
D13*
X6165000Y-2296000D03*
X6165000Y-2096000D03*
%TD*%
D12*
%TO.C,J6*%
X6900000Y-3595000D03*
D13*
X7100000Y-3595000D03*
X7300000Y-3595000D03*
X7500000Y-3595000D03*
X7700000Y-3595000D03*
X7900000Y-3595000D03*
X8100000Y-3595000D03*
X8300000Y-3595000D03*
%TD*%
D11*
%TO.C,R9*%
X7950000Y-3138500D03*
X7950000Y-2846000D03*
%TD*%
D28*
%TO.C,C11*%
X5768250Y-6086500D03*
X5768250Y-5896500D03*
%TD*%
D11*
%TO.C,R6*%
X5750000Y-3138500D03*
X5750000Y-2846000D03*
%TD*%
%TO.C,R3*%
X7400000Y-3138500D03*
X7400000Y-2846000D03*
%TD*%
%TO.C,R11*%
X8450000Y-3138500D03*
X8450000Y-2846000D03*
%TD*%
D12*
%TO.C,J3*%
X8150000Y-2546000D03*
D13*
X8350000Y-2546000D03*
X8550000Y-2546000D03*
X8750000Y-2546000D03*
X8950000Y-2546000D03*
X9150000Y-2546000D03*
X9350000Y-2546000D03*
X9550000Y-2546000D03*
X9750000Y-2546000D03*
%TD*%
D11*
%TO.C,R5*%
X5350000Y-3146000D03*
X5350000Y-2853500D03*
%TD*%
D33*
%TO.C,C10*%
X7068250Y-6596500D03*
X6878250Y-6596500D03*
%TD*%
D11*
%TO.C,R10*%
X8200000Y-3138500D03*
X8200000Y-2846000D03*
%TD*%
%TO.C,R17*%
X9950000Y-3146000D03*
X9950000Y-2853500D03*
%TD*%
D12*
%TO.C,M4*%
X5355000Y-2496000D03*
D13*
X5355000Y-2296000D03*
X5355000Y-2096000D03*
%TD*%
M02*
