%TF.GenerationSoftware,KiCad,Pcbnew,9.0.3*%
%TF.CreationDate,2025-07-24T22:11:21+07:00*%
%TF.ProjectId,flying thing that crashes,666c7969-6e67-4207-9468-696e67207468,rev?*%
%TF.SameCoordinates,Original*%
%TF.FileFunction,Copper,L1,Top*%
%TF.FilePolarity,Positive*%
%FSLAX45Y45*%
G04 Gerber Fmt 4.5, Leading zero omitted, Abs format (unit mm)*
G04 Created by KiCad (PCBNEW 9.0.3) date 2025-07-24 22:11:21*
%MOMM*%
%LPD*%
G01*
G04 APERTURE LIST*
G04 Aperture macros list*
%AMRoundRect*
0 Rectangle with rounded corners*
0 $1 Rounding radius*
0 $2 $3 $4 $5 $6 $7 $8 $9 X,Y pos of 4 corners*
0 Add a 4 corners polygon primitive as box body*
4,1,4,$2,$3,$4,$5,$6,$7,$8,$9,$2,$3,0*
0 Add four circle primitives for the rounded corners*
1,1,$1+$1,$2,$3*
1,1,$1+$1,$4,$5*
1,1,$1+$1,$6,$7*
1,1,$1+$1,$8,$9*
0 Add four rect primitives between the rounded corners*
20,1,$1+$1,$2,$3,$4,$5,0*
20,1,$1+$1,$4,$5,$6,$7,0*
20,1,$1+$1,$6,$7,$8,$9,0*
20,1,$1+$1,$8,$9,$2,$3,0*%
G04 Aperture macros list end*
%TA.AperFunction,SMDPad,CuDef*%
%ADD10RoundRect,0.250000X0.625000X-0.312500X0.625000X0.312500X-0.625000X0.312500X-0.625000X-0.312500X0*%
%TD*%
%TA.AperFunction,ComponentPad*%
%ADD11R,1.350000X1.350000*%
%TD*%
%TA.AperFunction,ComponentPad*%
%ADD12C,1.350000*%
%TD*%
%TA.AperFunction,SMDPad,CuDef*%
%ADD13RoundRect,0.250000X0.262500X0.450000X-0.262500X0.450000X-0.262500X-0.450000X0.262500X-0.450000X0*%
%TD*%
%TA.AperFunction,SMDPad,CuDef*%
%ADD14RoundRect,0.250000X-0.250000X-0.475000X0.250000X-0.475000X0.250000X0.475000X-0.250000X0.475000X0*%
%TD*%
%TA.AperFunction,SMDPad,CuDef*%
%ADD15R,2.000000X1.500000*%
%TD*%
%TA.AperFunction,SMDPad,CuDef*%
%ADD16RoundRect,0.250000X-0.262500X-0.450000X0.262500X-0.450000X0.262500X0.450000X-0.262500X0.450000X0*%
%TD*%
%TA.AperFunction,SMDPad,CuDef*%
%ADD17R,3.400000X0.980000*%
%TD*%
%TA.AperFunction,ComponentPad*%
%ADD18R,1.600000X1.600000*%
%TD*%
%TA.AperFunction,ComponentPad*%
%ADD19O,1.600000X1.600000*%
%TD*%
%TA.AperFunction,SMDPad,CuDef*%
%ADD20R,0.599999X0.240000*%
%TD*%
%TA.AperFunction,SMDPad,CuDef*%
%ADD21R,0.240000X0.599999*%
%TD*%
%TA.AperFunction,SMDPad,CuDef*%
%ADD22R,0.850001X0.700001*%
%TD*%
%TA.AperFunction,SMDPad,CuDef*%
%ADD23R,1.450000X0.349999*%
%TD*%
%TA.AperFunction,SMDPad,CuDef*%
%ADD24R,1.799999X0.349999*%
%TD*%
%TA.AperFunction,SMDPad,CuDef*%
%ADD25RoundRect,0.250000X0.650000X-0.325000X0.650000X0.325000X-0.650000X0.325000X-0.650000X-0.325000X0*%
%TD*%
%TA.AperFunction,SMDPad,CuDef*%
%ADD26RoundRect,0.225000X-0.225000X-0.250000X0.225000X-0.250000X0.225000X0.250000X-0.225000X0.250000X0*%
%TD*%
%TA.AperFunction,SMDPad,CuDef*%
%ADD27RoundRect,0.250000X0.475000X-0.250000X0.475000X0.250000X-0.475000X0.250000X-0.475000X-0.250000X0*%
%TD*%
%TA.AperFunction,SMDPad,CuDef*%
%ADD28RoundRect,0.250000X-0.450000X0.262500X-0.450000X-0.262500X0.450000X-0.262500X0.450000X0.262500X0*%
%TD*%
%TA.AperFunction,SMDPad,CuDef*%
%ADD29RoundRect,0.250000X-0.475000X0.250000X-0.475000X-0.250000X0.475000X-0.250000X0.475000X0.250000X0*%
%TD*%
%TA.AperFunction,SMDPad,CuDef*%
%ADD30RoundRect,0.050000X-0.050000X0.225000X-0.050000X-0.225000X0.050000X-0.225000X0.050000X0.225000X0*%
%TD*%
%TA.AperFunction,SMDPad,CuDef*%
%ADD31RoundRect,0.050000X-0.225000X-0.050000X0.225000X-0.050000X0.225000X0.050000X-0.225000X0.050000X0*%
%TD*%
%TA.AperFunction,SMDPad,CuDef*%
%ADD32RoundRect,0.250000X0.250000X0.475000X-0.250000X0.475000X-0.250000X-0.475000X0.250000X-0.475000X0*%
%TD*%
%TA.AperFunction,ViaPad*%
%ADD33C,0.600000*%
%TD*%
%TA.AperFunction,Conductor*%
%ADD34C,0.200000*%
%TD*%
%TA.AperFunction,Conductor*%
%ADD35C,0.150000*%
%TD*%
G04 APERTURE END LIST*
D10*
%TO.P,R7,1*%
%TO.N,PWM 3*%
X6150000Y-3146000D03*
%TO.P,R7,2*%
%TO.N,Net-(M2-PWM)*%
X6150000Y-2853500D03*
%TD*%
D11*
%TO.P,M5,1,PWM*%
%TO.N,Net-(M5-PWM)*%
X4950000Y-2496000D03*
D12*
%TO.P,M5,2,+*%
%TO.N,MVIN*%
X4950000Y-2296000D03*
%TO.P,M5,3,-*%
%TO.N,GND*%
X4950000Y-2096000D03*
%TD*%
D10*
%TO.P,R15,1*%
%TO.N,PWM 13*%
X9450000Y-3146000D03*
%TO.P,R15,2*%
%TO.N,Net-(J3-Pin_7)*%
X9450000Y-2853500D03*
%TD*%
%TO.P,R4,1*%
%TO.N,PWM 6*%
X4950000Y-3138500D03*
%TO.P,R4,2*%
%TO.N,Net-(M5-PWM)*%
X4950000Y-2846000D03*
%TD*%
%TO.P,R34,1*%
%TO.N,PWM 9*%
X3750000Y-3146000D03*
%TO.P,R34,2*%
%TO.N,Net-(M8-PWM)*%
X3750000Y-2853500D03*
%TD*%
D11*
%TO.P,J1,1,Pin_1*%
%TO.N,GND*%
X6995000Y-2096000D03*
D12*
%TO.P,J1,2,Pin_2*%
%TO.N,MVIN*%
X6995000Y-2296000D03*
%TO.P,J1,3,Pin_3*%
%TO.N,Net-(J1-Pin_3)*%
X6995000Y-2496000D03*
%TD*%
D13*
%TO.P,R31,1*%
%TO.N,3V3*%
X9741250Y-4881000D03*
%TO.P,R31,2*%
%TO.N,NCS*%
X9558750Y-4881000D03*
%TD*%
D10*
%TO.P,R16,1*%
%TO.N,PWM 14*%
X9700000Y-3146000D03*
%TO.P,R16,2*%
%TO.N,Net-(J3-Pin_8)*%
X9700000Y-2853500D03*
%TD*%
D14*
%TO.P,C19,1*%
%TO.N,3V3*%
X2600000Y-8600000D03*
%TO.P,C19,2*%
%TO.N,GND*%
X2790000Y-8600000D03*
%TD*%
D11*
%TO.P,J2,1,Pin_1*%
%TO.N,GND*%
X7400000Y-2096000D03*
D12*
%TO.P,J2,2,Pin_2*%
%TO.N,MVIN*%
X7400000Y-2296000D03*
%TO.P,J2,3,Pin_3*%
%TO.N,Net-(J2-Pin_3)*%
X7400000Y-2496000D03*
%TD*%
D15*
%TO.P,U3,1,GND*%
%TO.N,GND*%
X1650000Y-6596000D03*
%TO.P,U3,2,GND*%
X1650000Y-6796000D03*
%TO.P,U3,3,VDD*%
%TO.N,3V3*%
X1650000Y-6996000D03*
%TO.P,U3,4,~{RESET}*%
%TO.N,RSTL2*%
X1650000Y-7196000D03*
%TO.P,U3,5,DIO0*%
%TO.N,D3*%
X1650000Y-7396000D03*
%TO.P,U3,6,DIO1*%
%TO.N,unconnected-(U3-DIO1-Pad6)*%
X1650000Y-7596000D03*
%TO.P,U3,7,DIO2*%
%TO.N,unconnected-(U3-DIO2-Pad7)*%
X1650000Y-7796000D03*
%TO.P,U3,8,DIO3*%
%TO.N,unconnected-(U3-DIO3-Pad8)*%
X1650000Y-7996000D03*
%TO.P,U3,9,GND*%
%TO.N,GND*%
X3250000Y-7996000D03*
%TO.P,U3,10,DIO4*%
%TO.N,unconnected-(U3-DIO4-Pad10)*%
X3250000Y-7796000D03*
%TO.P,U3,11,DIO5*%
%TO.N,unconnected-(U3-DIO5-Pad11)*%
X3250000Y-7596000D03*
%TO.P,U3,12,SCK*%
%TO.N,D13*%
X3250000Y-7396000D03*
%TO.P,U3,13,MISO*%
%TO.N,D12*%
X3250000Y-7196000D03*
%TO.P,U3,14,MOSI*%
%TO.N,D11*%
X3250000Y-6996000D03*
%TO.P,U3,15,~{NSS}*%
%TO.N,SSLR2*%
X3250000Y-6796000D03*
%TO.P,U3,16,GND*%
%TO.N,GND*%
X3250000Y-6596000D03*
%TD*%
D16*
%TO.P,R27,1*%
%TO.N,3V3*%
X8657500Y-4189750D03*
%TO.P,R27,2*%
%TO.N,A4*%
X8840000Y-4189750D03*
%TD*%
D10*
%TO.P,R33,1*%
%TO.N,PWM 8*%
X4150000Y-3146000D03*
%TO.P,R33,2*%
%TO.N,Net-(M7-PWM)*%
X4150000Y-2853500D03*
%TD*%
D14*
%TO.P,C14,1*%
%TO.N,GND*%
X9500000Y-3589750D03*
%TO.P,C14,2*%
%TO.N,3V3*%
X9690000Y-3589750D03*
%TD*%
D17*
%TO.P,L1,1,1*%
%TO.N,Net-(U6-L1)*%
X7268250Y-5859500D03*
%TO.P,L1,2,2*%
%TO.N,Net-(U6-L2)*%
X7268250Y-6096500D03*
%TD*%
D11*
%TO.P,M3,1,PWM*%
%TO.N,Net-(M3-PWM)*%
X5760000Y-2496000D03*
D12*
%TO.P,M3,2,+*%
%TO.N,MVIN*%
X5760000Y-2296000D03*
%TO.P,M3,3,-*%
%TO.N,GND*%
X5760000Y-2096000D03*
%TD*%
D10*
%TO.P,R13,1*%
%TO.N,PWM 11*%
X8950000Y-3146000D03*
%TO.P,R13,2*%
%TO.N,Net-(J3-Pin_5)*%
X8950000Y-2853500D03*
%TD*%
D11*
%TO.P,M6,1,PWM*%
%TO.N,Net-(M6-PWM)*%
X4545000Y-2496000D03*
D12*
%TO.P,M6,2,+*%
%TO.N,MVIN*%
X4545000Y-2296000D03*
%TO.P,M6,3,-*%
%TO.N,GND*%
X4545000Y-2096000D03*
%TD*%
D16*
%TO.P,R30,1*%
%TO.N,AD0*%
X9050000Y-5339750D03*
%TO.P,R30,2*%
%TO.N,GND*%
X9232500Y-5339750D03*
%TD*%
D11*
%TO.P,J7,1,Pin_1*%
%TO.N,D0*%
X3750000Y-3981000D03*
D12*
%TO.P,J7,2,Pin_2*%
%TO.N,D1*%
X3950000Y-3981000D03*
%TO.P,J7,3,Pin_3*%
%TO.N,D2*%
X4150000Y-3981000D03*
%TO.P,J7,4,Pin_4*%
%TO.N,D3*%
X4350000Y-3981000D03*
%TO.P,J7,5,Pin_5*%
%TO.N,D4*%
X4550000Y-3981000D03*
%TO.P,J7,6,Pin_6*%
%TO.N,D5*%
X4750000Y-3981000D03*
%TO.P,J7,7,Pin_7*%
%TO.N,D6*%
X4950000Y-3981000D03*
%TO.P,J7,8,Pin_8*%
%TO.N,D7*%
X5150000Y-3981000D03*
%TO.P,J7,9,Pin_9*%
%TO.N,D8*%
X5350000Y-3981000D03*
%TO.P,J7,10,Pin_10*%
%TO.N,D9*%
X5550000Y-3981000D03*
%TO.P,J7,11,Pin_11*%
%TO.N,D10*%
X5750000Y-3981000D03*
%TO.P,J7,12,Pin_12*%
%TO.N,D11*%
X5950000Y-3981000D03*
%TO.P,J7,13,Pin_13*%
%TO.N,D12*%
X6150000Y-3981000D03*
%TO.P,J7,14,Pin_14*%
%TO.N,D13*%
X6350000Y-3981000D03*
%TD*%
D10*
%TO.P,R32,1*%
%TO.N,PWM 7*%
X4550000Y-3138500D03*
%TO.P,R32,2*%
%TO.N,Net-(M6-PWM)*%
X4550000Y-2846000D03*
%TD*%
D11*
%TO.P,M1,1,PWM*%
%TO.N,Net-(M1-PWM)*%
X6570000Y-2496000D03*
D12*
%TO.P,M1,2,+*%
%TO.N,MVIN*%
X6570000Y-2296000D03*
%TO.P,M1,3,-*%
%TO.N,GND*%
X6570000Y-2096000D03*
%TD*%
D18*
%TO.P,A1,1,D1/TX*%
%TO.N,D1*%
X3200000Y-5666000D03*
D19*
%TO.P,A1,2,D0/RX*%
%TO.N,D0*%
X3200000Y-5412000D03*
%TO.P,A1,3,~{RESET}*%
%TO.N,unconnected-(A1-~{RESET}-Pad3)*%
X3200000Y-5158000D03*
%TO.P,A1,4,GND*%
%TO.N,GND*%
X3200000Y-4904000D03*
%TO.P,A1,5,D2*%
%TO.N,D2*%
X3200000Y-4650000D03*
%TO.P,A1,6,D3*%
%TO.N,D3*%
X3200000Y-4396000D03*
%TO.P,A1,7,D4*%
%TO.N,D4*%
X3200000Y-4142000D03*
%TO.P,A1,8,D5*%
%TO.N,D5*%
X3200000Y-3888000D03*
%TO.P,A1,9,D6*%
%TO.N,D6*%
X3200000Y-3634000D03*
%TO.P,A1,10,D7*%
%TO.N,D7*%
X3200000Y-3380000D03*
%TO.P,A1,11,D8*%
%TO.N,D8*%
X3200000Y-3126000D03*
%TO.P,A1,12,D9*%
%TO.N,D9*%
X3200000Y-2872000D03*
%TO.P,A1,13,D10*%
%TO.N,D10*%
X3200000Y-2618000D03*
%TO.P,A1,14,D11*%
%TO.N,D11*%
X3200000Y-2364000D03*
%TO.P,A1,15,D12*%
%TO.N,D12*%
X3200000Y-2110000D03*
%TO.P,A1,16,D13*%
%TO.N,D13*%
X1676000Y-2110000D03*
%TO.P,A1,17,3V3*%
%TO.N,unconnected-(A1-3V3-Pad17)*%
X1676000Y-2364000D03*
%TO.P,A1,18,AREF*%
%TO.N,AREF*%
X1676000Y-2618000D03*
%TO.P,A1,19,A0*%
%TO.N,A0*%
X1676000Y-2872000D03*
%TO.P,A1,20,A1*%
%TO.N,A1*%
X1676000Y-3126000D03*
%TO.P,A1,21,A2*%
%TO.N,A2*%
X1676000Y-3380000D03*
%TO.P,A1,22,A3*%
%TO.N,A3*%
X1676000Y-3634000D03*
%TO.P,A1,23,A4*%
%TO.N,A4*%
X1676000Y-3888000D03*
%TO.P,A1,24,A5*%
%TO.N,A5*%
X1676000Y-4142000D03*
%TO.P,A1,25,A6*%
%TO.N,A6*%
X1676000Y-4396000D03*
%TO.P,A1,26,A7*%
%TO.N,A7*%
X1676000Y-4650000D03*
%TO.P,A1,27,+5V*%
%TO.N,5V*%
X1676000Y-4904000D03*
%TO.P,A1,28,~{RESET}*%
%TO.N,unconnected-(A1-~{RESET}-Pad28)*%
X1676000Y-5158000D03*
%TO.P,A1,29,GND*%
%TO.N,GND*%
X1676000Y-5412000D03*
%TO.P,A1,30,VIN*%
%TO.N,unconnected-(A1-VIN-Pad30)*%
X1676000Y-5666000D03*
%TD*%
D20*
%TO.P,U6,1,PS_SYNC*%
%TO.N,GND*%
X6625750Y-5911500D03*
%TO.P,U6,2,PG*%
%TO.N,Net-(U6-PG)*%
X6625750Y-5961500D03*
%TO.P,U6,3,VAUX*%
%TO.N,Net-(U6-VAUX)*%
X6625750Y-6011500D03*
%TO.P,U6,4,GND*%
%TO.N,GND*%
X6625750Y-6061500D03*
D21*
%TO.P,U6,5,FB*%
%TO.N,Net-(U6-FB)*%
X6668250Y-6126500D03*
%TO.P,U6,6,FB2*%
%TO.N,GND*%
X6718250Y-6126500D03*
D22*
%TO.P,U6,7,VOUT*%
%TO.N,5V*%
X6793250Y-6126500D03*
%TO.P,U6,8,VOUT*%
X6793250Y-6126500D03*
D23*
%TO.P,U6,9,L2*%
%TO.N,Net-(U6-L2)*%
X6818250Y-6036500D03*
D24*
%TO.P,U6,10,PGND*%
%TO.N,GND*%
X6800750Y-5986500D03*
D23*
%TO.P,U6,11,L1*%
%TO.N,Net-(U6-L1)*%
X6818250Y-5936500D03*
D22*
%TO.P,U6,12,VIN*%
%TO.N,VIN*%
X6793250Y-5846500D03*
%TO.P,U6,13,VIN*%
X6793250Y-5846500D03*
D21*
%TO.P,U6,14,EN*%
X6718250Y-5846500D03*
%TO.P,U6,15,VSEL*%
%TO.N,GND*%
X6668250Y-5846500D03*
%TD*%
D14*
%TO.P,C17,1*%
%TO.N,GND*%
X4060000Y-8550000D03*
%TO.P,C17,2*%
%TO.N,3V3*%
X4250000Y-8550000D03*
%TD*%
D25*
%TO.P,C8,1*%
%TO.N,GND*%
X6218250Y-5891500D03*
%TO.P,C8,2*%
%TO.N,Net-(U6-VAUX)*%
X6218250Y-5596500D03*
%TD*%
D13*
%TO.P,R18,1*%
%TO.N,5V*%
X6850750Y-6891500D03*
%TO.P,R18,2*%
%TO.N,Net-(U6-FB)*%
X6668250Y-6891500D03*
%TD*%
D11*
%TO.P,M7,1,PWM*%
%TO.N,Net-(M7-PWM)*%
X4140000Y-2496000D03*
D12*
%TO.P,M7,2,+*%
%TO.N,MVIN*%
X4140000Y-2296000D03*
%TO.P,M7,3,-*%
%TO.N,GND*%
X4140000Y-2096000D03*
%TD*%
D14*
%TO.P,C13,1*%
%TO.N,GND*%
X9500000Y-4039750D03*
%TO.P,C13,2*%
%TO.N,3V3*%
X9690000Y-4039750D03*
%TD*%
D16*
%TO.P,R19,1*%
%TO.N,Net-(U6-FB)*%
X7068250Y-6886500D03*
%TO.P,R19,2*%
%TO.N,GND*%
X7250750Y-6886500D03*
%TD*%
D10*
%TO.P,R2,1*%
%TO.N,PWM 0*%
X7000000Y-3138500D03*
%TO.P,R2,2*%
%TO.N,Net-(J1-Pin_3)*%
X7000000Y-2846000D03*
%TD*%
D16*
%TO.P,R29,1*%
%TO.N,FSYNC*%
X9057500Y-5039750D03*
%TO.P,R29,2*%
%TO.N,GND*%
X9240000Y-5039750D03*
%TD*%
D11*
%TO.P,J8,1,Pin_1*%
%TO.N,D0*%
X3750000Y-3596000D03*
D12*
%TO.P,J8,2,Pin_2*%
%TO.N,D1*%
X3950000Y-3596000D03*
%TO.P,J8,3,Pin_3*%
%TO.N,D2*%
X4150000Y-3596000D03*
%TO.P,J8,4,Pin_4*%
%TO.N,D3*%
X4350000Y-3596000D03*
%TO.P,J8,5,Pin_5*%
%TO.N,D4*%
X4550000Y-3596000D03*
%TO.P,J8,6,Pin_6*%
%TO.N,D5*%
X4750000Y-3596000D03*
%TO.P,J8,7,Pin_7*%
%TO.N,D6*%
X4950000Y-3596000D03*
%TO.P,J8,8,Pin_8*%
%TO.N,D7*%
X5150000Y-3596000D03*
%TO.P,J8,9,Pin_9*%
%TO.N,D8*%
X5350000Y-3596000D03*
%TO.P,J8,10,Pin_10*%
%TO.N,D9*%
X5550000Y-3596000D03*
%TO.P,J8,11,Pin_11*%
%TO.N,D10*%
X5750000Y-3596000D03*
%TO.P,J8,12,Pin_12*%
%TO.N,D11*%
X5950000Y-3596000D03*
%TO.P,J8,13,Pin_13*%
%TO.N,D12*%
X6150000Y-3596000D03*
%TO.P,J8,14,Pin_14*%
%TO.N,D13*%
X6350000Y-3596000D03*
%TD*%
D26*
%TO.P,C9,1*%
%TO.N,GND*%
X6868250Y-6396500D03*
%TO.P,C9,2*%
%TO.N,5V*%
X7023250Y-6396500D03*
%TD*%
D27*
%TO.P,C12,1*%
%TO.N,5V*%
X6218250Y-6286500D03*
%TO.P,C12,2*%
%TO.N,GND*%
X6218250Y-6096500D03*
%TD*%
D28*
%TO.P,R28,1*%
%TO.N,3V3*%
X9790000Y-4357250D03*
%TO.P,R28,2*%
%TO.N,A5*%
X9790000Y-4539750D03*
%TD*%
D29*
%TO.P,C7,1*%
%TO.N,VIN*%
X6218250Y-6506500D03*
%TO.P,C7,2*%
%TO.N,GND*%
X6218250Y-6696500D03*
%TD*%
D10*
%TO.P,R8,1*%
%TO.N,PWM 2*%
X6550000Y-3138500D03*
%TO.P,R8,2*%
%TO.N,Net-(M1-PWM)*%
X6550000Y-2846000D03*
%TD*%
%TO.P,R14,1*%
%TO.N,PWM 12*%
X9200000Y-3146000D03*
%TO.P,R14,2*%
%TO.N,Net-(J3-Pin_6)*%
X9200000Y-2853500D03*
%TD*%
D11*
%TO.P,J5,1,Pin_1*%
%TO.N,A0*%
X6900000Y-4000000D03*
D12*
%TO.P,J5,2,Pin_2*%
%TO.N,A1*%
X7100000Y-4000000D03*
%TO.P,J5,3,Pin_3*%
%TO.N,A2*%
X7300000Y-4000000D03*
%TO.P,J5,4,Pin_4*%
%TO.N,A3*%
X7500000Y-4000000D03*
%TO.P,J5,5,Pin_5*%
%TO.N,A4*%
X7700000Y-4000000D03*
%TO.P,J5,6,Pin_6*%
%TO.N,A5*%
X7900000Y-4000000D03*
%TO.P,J5,7,Pin_7*%
%TO.N,A6*%
X8100000Y-4000000D03*
%TO.P,J5,8,Pin_8*%
%TO.N,A7*%
X8300000Y-4000000D03*
%TD*%
D10*
%TO.P,R12,1*%
%TO.N,PWM 10*%
X8700000Y-3146000D03*
%TO.P,R12,2*%
%TO.N,Net-(J3-Pin_4)*%
X8700000Y-2853500D03*
%TD*%
D11*
%TO.P,M8,1,PWM*%
%TO.N,Net-(M8-PWM)*%
X3735000Y-2496000D03*
D12*
%TO.P,M8,2,+*%
%TO.N,MVIN*%
X3735000Y-2296000D03*
%TO.P,M8,3,-*%
%TO.N,GND*%
X3735000Y-2096000D03*
%TD*%
D14*
%TO.P,C15,1*%
%TO.N,Net-(U5-REGOUT)*%
X9055000Y-4039750D03*
%TO.P,C15,2*%
%TO.N,GND*%
X9245000Y-4039750D03*
%TD*%
%TO.P,C16,1*%
%TO.N,3V3*%
X4560000Y-8550000D03*
%TO.P,C16,2*%
%TO.N,GND*%
X4750000Y-8550000D03*
%TD*%
%TO.P,C18,1*%
%TO.N,GND*%
X1940000Y-8600000D03*
%TO.P,C18,2*%
%TO.N,3V3*%
X2130000Y-8600000D03*
%TD*%
D15*
%TO.P,U2,1,GND*%
%TO.N,GND*%
X3650000Y-6596000D03*
%TO.P,U2,2,GND*%
X3650000Y-6796000D03*
%TO.P,U2,3,VDD*%
%TO.N,3V3*%
X3650000Y-6996000D03*
%TO.P,U2,4,~{RESET}*%
%TO.N,RSTL1*%
X3650000Y-7196000D03*
%TO.P,U2,5,DIO0*%
%TO.N,D4*%
X3650000Y-7396000D03*
%TO.P,U2,6,DIO1*%
%TO.N,unconnected-(U2-DIO1-Pad6)*%
X3650000Y-7596000D03*
%TO.P,U2,7,DIO2*%
%TO.N,unconnected-(U2-DIO2-Pad7)*%
X3650000Y-7796000D03*
%TO.P,U2,8,DIO3*%
%TO.N,unconnected-(U2-DIO3-Pad8)*%
X3650000Y-7996000D03*
%TO.P,U2,9,GND*%
%TO.N,GND*%
X5250000Y-7996000D03*
%TO.P,U2,10,DIO4*%
%TO.N,unconnected-(U2-DIO4-Pad10)*%
X5250000Y-7796000D03*
%TO.P,U2,11,DIO5*%
%TO.N,unconnected-(U2-DIO5-Pad11)*%
X5250000Y-7596000D03*
%TO.P,U2,12,SCK*%
%TO.N,D13*%
X5250000Y-7396000D03*
%TO.P,U2,13,MISO*%
%TO.N,D12*%
X5250000Y-7196000D03*
%TO.P,U2,14,MOSI*%
%TO.N,D11*%
X5250000Y-6996000D03*
%TO.P,U2,15,~{NSS}*%
%TO.N,SSLR1*%
X5250000Y-6796000D03*
%TO.P,U2,16,GND*%
%TO.N,GND*%
X5250000Y-6596000D03*
%TD*%
D30*
%TO.P,U5,1,RESV_VDDIO*%
%TO.N,3V3*%
X9270000Y-4450000D03*
%TO.P,U5,2*%
%TO.N,N/C*%
X9230000Y-4450000D03*
%TO.P,U5,3*%
X9190000Y-4450000D03*
%TO.P,U5,4*%
X9150000Y-4450000D03*
%TO.P,U5,5*%
X9110000Y-4450000D03*
%TO.P,U5,6*%
X9070000Y-4450000D03*
D31*
%TO.P,U5,7,AUX_CL*%
%TO.N,ECL*%
X9020000Y-4500000D03*
%TO.P,U5,8,VDDIO*%
%TO.N,3V3*%
X9020000Y-4540000D03*
%TO.P,U5,9,AD0/MISO*%
%TO.N,AD0*%
X9020000Y-4580000D03*
%TO.P,U5,10,REGOUT*%
%TO.N,Net-(U5-REGOUT)*%
X9020000Y-4620000D03*
%TO.P,U5,11,FSYNC*%
%TO.N,FSYNC*%
X9020000Y-4660000D03*
%TO.P,U5,12,INT*%
%TO.N,unconnected-(U5-INT-Pad12)*%
X9020000Y-4700000D03*
D30*
%TO.P,U5,13,VDD*%
%TO.N,3V3*%
X9070000Y-4750000D03*
%TO.P,U5,14*%
%TO.N,N/C*%
X9110000Y-4750000D03*
%TO.P,U5,15*%
X9150000Y-4750000D03*
%TO.P,U5,16*%
X9190000Y-4750000D03*
%TO.P,U5,17*%
X9230000Y-4750000D03*
%TO.P,U5,18,GND*%
%TO.N,GND*%
X9270000Y-4750000D03*
D31*
%TO.P,U5,19*%
%TO.N,N/C*%
X9320000Y-4700000D03*
%TO.P,U5,20,RESV_GND*%
%TO.N,GND*%
X9320000Y-4660000D03*
%TO.P,U5,21,AUX_DA*%
%TO.N,EDA*%
X9320000Y-4620000D03*
%TO.P,U5,22,~{CS}*%
%TO.N,NCS*%
X9320000Y-4580000D03*
%TO.P,U5,23,SCL/SCLK*%
%TO.N,A5*%
X9320000Y-4540000D03*
%TO.P,U5,24,SDA/MOSI*%
%TO.N,A4*%
X9320000Y-4500000D03*
%TD*%
D27*
%TO.P,C6,1*%
%TO.N,GND*%
X6568250Y-6586500D03*
%TO.P,C6,2*%
%TO.N,VIN*%
X6568250Y-6396500D03*
%TD*%
D11*
%TO.P,J4,1,Pin_1*%
%TO.N,Net-(J3-Pin_1)*%
X8150000Y-2141000D03*
D12*
%TO.P,J4,2,Pin_2*%
%TO.N,Net-(J3-Pin_2)*%
X8350000Y-2141000D03*
%TO.P,J4,3,Pin_3*%
%TO.N,Net-(J3-Pin_3)*%
X8550000Y-2141000D03*
%TO.P,J4,4,Pin_4*%
%TO.N,Net-(J3-Pin_4)*%
X8750000Y-2141000D03*
%TO.P,J4,5,Pin_5*%
%TO.N,Net-(J3-Pin_5)*%
X8950000Y-2141000D03*
%TO.P,J4,6,Pin_6*%
%TO.N,Net-(J3-Pin_6)*%
X9150000Y-2141000D03*
%TO.P,J4,7,Pin_7*%
%TO.N,Net-(J3-Pin_7)*%
X9350000Y-2141000D03*
%TO.P,J4,8,Pin_8*%
%TO.N,Net-(J3-Pin_8)*%
X9550000Y-2141000D03*
%TO.P,J4,9,Pin_9*%
%TO.N,Net-(J3-Pin_9)*%
X9750000Y-2141000D03*
%TD*%
D28*
%TO.P,R20,1*%
%TO.N,5V*%
X7359500Y-6354000D03*
%TO.P,R20,2*%
%TO.N,Net-(U6-PG)*%
X7359500Y-6536500D03*
%TD*%
D11*
%TO.P,M2,1,PWM*%
%TO.N,Net-(M2-PWM)*%
X6165000Y-2496000D03*
D12*
%TO.P,M2,2,+*%
%TO.N,MVIN*%
X6165000Y-2296000D03*
%TO.P,M2,3,-*%
%TO.N,GND*%
X6165000Y-2096000D03*
%TD*%
D11*
%TO.P,J6,1,Pin_1*%
%TO.N,A0*%
X6900000Y-3595000D03*
D12*
%TO.P,J6,2,Pin_2*%
%TO.N,A1*%
X7100000Y-3595000D03*
%TO.P,J6,3,Pin_3*%
%TO.N,A2*%
X7300000Y-3595000D03*
%TO.P,J6,4,Pin_4*%
%TO.N,A3*%
X7500000Y-3595000D03*
%TO.P,J6,5,Pin_5*%
%TO.N,A4*%
X7700000Y-3595000D03*
%TO.P,J6,6,Pin_6*%
%TO.N,A5*%
X7900000Y-3595000D03*
%TO.P,J6,7,Pin_7*%
%TO.N,A6*%
X8100000Y-3595000D03*
%TO.P,J6,8,Pin_8*%
%TO.N,A7*%
X8300000Y-3595000D03*
%TD*%
D10*
%TO.P,R9,1*%
%TO.N,PWM 7*%
X7950000Y-3138500D03*
%TO.P,R9,2*%
%TO.N,Net-(J3-Pin_1)*%
X7950000Y-2846000D03*
%TD*%
D27*
%TO.P,C11,1*%
%TO.N,5V*%
X5768250Y-6086500D03*
%TO.P,C11,2*%
%TO.N,GND*%
X5768250Y-5896500D03*
%TD*%
D10*
%TO.P,R6,1*%
%TO.N,PWM 4*%
X5750000Y-3138500D03*
%TO.P,R6,2*%
%TO.N,Net-(M3-PWM)*%
X5750000Y-2846000D03*
%TD*%
%TO.P,R3,1*%
%TO.N,PWM 1*%
X7400000Y-3138500D03*
%TO.P,R3,2*%
%TO.N,Net-(J2-Pin_3)*%
X7400000Y-2846000D03*
%TD*%
%TO.P,R11,1*%
%TO.N,PWM 9*%
X8450000Y-3138500D03*
%TO.P,R11,2*%
%TO.N,Net-(J3-Pin_3)*%
X8450000Y-2846000D03*
%TD*%
D11*
%TO.P,J3,1,Pin_1*%
%TO.N,Net-(J3-Pin_1)*%
X8150000Y-2546000D03*
D12*
%TO.P,J3,2,Pin_2*%
%TO.N,Net-(J3-Pin_2)*%
X8350000Y-2546000D03*
%TO.P,J3,3,Pin_3*%
%TO.N,Net-(J3-Pin_3)*%
X8550000Y-2546000D03*
%TO.P,J3,4,Pin_4*%
%TO.N,Net-(J3-Pin_4)*%
X8750000Y-2546000D03*
%TO.P,J3,5,Pin_5*%
%TO.N,Net-(J3-Pin_5)*%
X8950000Y-2546000D03*
%TO.P,J3,6,Pin_6*%
%TO.N,Net-(J3-Pin_6)*%
X9150000Y-2546000D03*
%TO.P,J3,7,Pin_7*%
%TO.N,Net-(J3-Pin_7)*%
X9350000Y-2546000D03*
%TO.P,J3,8,Pin_8*%
%TO.N,Net-(J3-Pin_8)*%
X9550000Y-2546000D03*
%TO.P,J3,9,Pin_9*%
%TO.N,Net-(J3-Pin_9)*%
X9750000Y-2546000D03*
%TD*%
D10*
%TO.P,R5,1*%
%TO.N,PWM 5*%
X5350000Y-3146000D03*
%TO.P,R5,2*%
%TO.N,Net-(M4-PWM)*%
X5350000Y-2853500D03*
%TD*%
D32*
%TO.P,C10,1*%
%TO.N,5V*%
X7068250Y-6596500D03*
%TO.P,C10,2*%
%TO.N,GND*%
X6878250Y-6596500D03*
%TD*%
D10*
%TO.P,R10,1*%
%TO.N,PWM 8*%
X8200000Y-3138500D03*
%TO.P,R10,2*%
%TO.N,Net-(J3-Pin_2)*%
X8200000Y-2846000D03*
%TD*%
%TO.P,R17,1*%
%TO.N,PWM 15*%
X9950000Y-3146000D03*
%TO.P,R17,2*%
%TO.N,Net-(J3-Pin_9)*%
X9950000Y-2853500D03*
%TD*%
D11*
%TO.P,M4,1,PWM*%
%TO.N,Net-(M4-PWM)*%
X5355000Y-2496000D03*
D12*
%TO.P,M4,2,+*%
%TO.N,MVIN*%
X5355000Y-2296000D03*
%TO.P,M4,3,-*%
%TO.N,GND*%
X5355000Y-2096000D03*
%TD*%
D33*
%TO.N,D2*%
X3450000Y-4300000D03*
%TO.N,D9*%
X5350000Y-3450100D03*
X5100000Y-2879900D03*
%TO.N,5V*%
X6550000Y-6250000D03*
X5500000Y-6050000D03*
X7500000Y-6250000D03*
X8150000Y-4842500D03*
X6908375Y-6241625D03*
X3500000Y-6200000D03*
X5750000Y-6350000D03*
X8250000Y-5050000D03*
X2250000Y-5100000D03*
%TO.N,D8*%
X5100000Y-3450100D03*
%TO.N,D6*%
X4750000Y-3450100D03*
%TO.N,A7*%
X8409809Y-2700785D03*
X8450000Y-1800000D03*
%TO.N,D7*%
X4950000Y-3450100D03*
%TO.N,D10*%
X5550000Y-3450100D03*
X5180000Y-2879900D03*
%TO.N,D1*%
X3960000Y-5300000D03*
X3950000Y-4250000D03*
X3740000Y-5500000D03*
%TO.N,GND*%
X8550000Y-6817500D03*
X9500000Y-4539750D03*
X8700000Y-6467500D03*
X6600000Y-4700000D03*
X9432574Y-4657177D03*
X3000000Y-6600000D03*
X1550000Y-5800000D03*
X1550000Y-6400000D03*
X8450000Y-5200000D03*
X7500000Y-6850000D03*
X2300000Y-6600000D03*
X6300000Y-4650000D03*
X8500000Y-4900000D03*
X3600000Y-4650000D03*
%TO.N,A2*%
X7500000Y-3400000D03*
X2050000Y-3400000D03*
X5550000Y-2450000D03*
X5906353Y-3210000D03*
X2550000Y-2800000D03*
X2050000Y-2800000D03*
%TO.N,D4*%
X4100000Y-6800000D03*
X3550000Y-3800000D03*
%TO.N,D12*%
X2900000Y-4800000D03*
X2960000Y-2900000D03*
X4850000Y-7200000D03*
X6000000Y-3450100D03*
X3450000Y-7200000D03*
X2900000Y-4250000D03*
X2900000Y-3150000D03*
X4750000Y-3240000D03*
X5700000Y-3450100D03*
X5450000Y-3290000D03*
%TO.N,A3*%
X2250000Y-3050000D03*
X2300000Y-2300000D03*
X7806569Y-3078500D03*
%TO.N,D0*%
X3750000Y-4200000D03*
%TO.N,A4*%
X7700000Y-4929900D03*
X5650000Y-5550000D03*
X5300000Y-5550000D03*
X9150000Y-3300000D03*
X3740000Y-5100000D03*
X2000000Y-3900000D03*
X7750000Y-5500000D03*
X7950000Y-4950000D03*
X3050000Y-4750000D03*
X8863788Y-4336212D03*
X8700000Y-4450000D03*
X8086171Y-4794272D03*
%TO.N,D11*%
X2900000Y-2800000D03*
X5550000Y-2750000D03*
X2800000Y-3100000D03*
X3450000Y-7000000D03*
X4850000Y-7000000D03*
X2650000Y-4110000D03*
X2650000Y-5100000D03*
%TO.N,D13*%
X3600000Y-4250000D03*
X3450000Y-7400000D03*
X4850000Y-7400000D03*
X4350000Y-4250000D03*
X5912400Y-4300000D03*
X2550000Y-7400000D03*
%TO.N,A1*%
X1910000Y-2900000D03*
X3500000Y-2500000D03*
X2550000Y-2900000D03*
X1910000Y-3100000D03*
X5150000Y-2700000D03*
X5950000Y-2850000D03*
%TO.N,A5*%
X1910000Y-4150000D03*
X6350000Y-2750000D03*
X2150000Y-2700000D03*
X9350000Y-4250000D03*
X6350000Y-1950000D03*
X9800000Y-4650000D03*
%TO.N,A0*%
X7600000Y-3090000D03*
X3500000Y-3200000D03*
%TO.N,A6*%
X2650000Y-2900000D03*
X2650000Y-3900000D03*
X2650000Y-2550000D03*
X7550000Y-2400000D03*
%TO.N,D3*%
X3690000Y-3750000D03*
%TO.N,3V3*%
X8780000Y-3900000D03*
X9410000Y-3850000D03*
X3900000Y-6900000D03*
X2600000Y-8300000D03*
X8760000Y-6550000D03*
X9250000Y-3900000D03*
X4250000Y-6800000D03*
X9600000Y-3750000D03*
X4550000Y-8300000D03*
%TO.N,Net-(U5-REGOUT)*%
X8860000Y-4636698D03*
X9145000Y-4050000D03*
%TO.N,Net-(JP1-B)*%
X6300000Y-5050000D03*
X6449500Y-5610000D03*
%TO.N,Net-(JP2-B)*%
X5750000Y-4700000D03*
X7900000Y-5450000D03*
X6509500Y-5450000D03*
X6403301Y-5696698D03*
X6389500Y-5450000D03*
X7669500Y-5700000D03*
%TO.N,Net-(JP3-B)*%
X4350000Y-4660000D03*
X5150000Y-4800000D03*
X6250000Y-5750000D03*
X5480947Y-5060200D03*
X4600000Y-4590000D03*
X5150000Y-4500000D03*
%TO.N,Net-(JP4-B)*%
X5100000Y-4900000D03*
X3900000Y-4550000D03*
X5650000Y-5800000D03*
X5650000Y-4650000D03*
%TO.N,Net-(JP5-B)*%
X5850000Y-4900000D03*
X5600000Y-5900000D03*
X7700000Y-5900000D03*
X5400000Y-5900000D03*
X4700000Y-4850000D03*
X4150000Y-5200000D03*
X8145820Y-5034800D03*
X4350000Y-4750000D03*
%TO.N,Net-(JP6-B)*%
X7100000Y-5300000D03*
X7879999Y-4800493D03*
X4300000Y-4850000D03*
X6300000Y-4950000D03*
%TO.N,Net-(U1-~{OE})*%
X7800000Y-4800000D03*
X7050000Y-4950000D03*
%TO.N,PWM 0*%
X7582573Y-5017427D03*
%TO.N,PWM 1*%
X7700000Y-5050000D03*
%TO.N,PWM 6*%
X4950000Y-3300000D03*
%TO.N,PWM 5*%
X7450000Y-5460000D03*
%TO.N,PWM 4*%
X7550000Y-5400000D03*
%TO.N,PWM 3*%
X7512197Y-5116897D03*
%TO.N,PWM 2*%
X7627430Y-5083668D03*
%TO.N,PWM 7*%
X4750000Y-3150000D03*
X4350000Y-3150000D03*
X7900000Y-3300000D03*
X7600000Y-3350000D03*
X7600000Y-3750000D03*
%TO.N,PWM 8*%
X8200000Y-3000000D03*
X4150000Y-3000000D03*
X7300000Y-4200000D03*
%TO.N,PWM 9*%
X3750000Y-3000000D03*
X8450000Y-2952250D03*
X7350000Y-4300000D03*
%TO.N,PWM 10*%
X7410000Y-4360000D03*
%TO.N,PWM 11*%
X8562178Y-3357778D03*
%TO.N,PWM 12*%
X7550000Y-4460000D03*
%TO.N,PWM 13*%
X7600000Y-4800000D03*
X8550000Y-4400000D03*
X9450000Y-3300000D03*
%TO.N,PWM 14*%
X9700000Y-3300000D03*
X7656569Y-4856569D03*
X8606569Y-4456569D03*
%TO.N,PWM 15*%
X9200000Y-3400000D03*
%TO.N,AD0*%
X8850000Y-4550000D03*
X8800000Y-4450000D03*
%TD*%
D34*
%TO.N,D5*%
X4750000Y-3596000D02*
X4750000Y-3981000D01*
%TO.N,D2*%
X4150000Y-3596000D02*
X4150000Y-3981000D01*
X3450000Y-4300000D02*
X3450000Y-4400000D01*
X3450000Y-4400000D02*
X3200000Y-4650000D01*
%TO.N,D9*%
X5087500Y-3287500D02*
X5087500Y-2892400D01*
X5350000Y-3450100D02*
X5300100Y-3450100D01*
X5150000Y-3300000D02*
X5100000Y-3300000D01*
X5300100Y-3450100D02*
X5150000Y-3300000D01*
X5550000Y-3596000D02*
X5550000Y-3981000D01*
X5100000Y-3300000D02*
X5087500Y-3287500D01*
X5087500Y-2892400D02*
X5100000Y-2879900D01*
%TO.N,5V*%
X3500000Y-6200000D02*
X3650000Y-6050000D01*
X3650000Y-6050000D02*
X5500000Y-6050000D01*
X7500000Y-6250000D02*
X7463500Y-6250000D01*
X6850750Y-6814000D02*
X7068250Y-6596500D01*
X7068250Y-6596500D02*
X7068250Y-6441500D01*
X6908375Y-6241625D02*
X7023250Y-6356500D01*
X6218250Y-6286500D02*
X6513500Y-6286500D01*
X1676000Y-4904000D02*
X2054000Y-4904000D01*
X7463500Y-6250000D02*
X7359500Y-6354000D01*
X7359500Y-6354000D02*
X7065750Y-6354000D01*
X5750000Y-6350000D02*
X5768250Y-6331750D01*
X6513500Y-6286500D02*
X6550000Y-6250000D01*
X6850750Y-6891500D02*
X6850750Y-6814000D01*
X5768250Y-6331750D02*
X5768250Y-6086500D01*
X2054000Y-4904000D02*
X2250000Y-5100000D01*
X6793250Y-6126500D02*
X6908375Y-6241625D01*
X8250000Y-5050000D02*
X8250000Y-4942500D01*
X8250000Y-4942500D02*
X8150000Y-4842500D01*
X7065750Y-6354000D02*
X7023250Y-6396500D01*
X7023250Y-6356500D02*
X7023250Y-6396500D01*
X7068250Y-6441500D02*
X7023250Y-6396500D01*
%TO.N,D8*%
X5100000Y-3450100D02*
X5039900Y-3390000D01*
X4946610Y-3390000D02*
X4856610Y-3300000D01*
X5350000Y-3596000D02*
X5350000Y-3981000D01*
X5039900Y-3390000D02*
X4946610Y-3390000D01*
X4856610Y-3300000D02*
X3374000Y-3300000D01*
X3374000Y-3300000D02*
X3200000Y-3126000D01*
%TO.N,D6*%
X3383900Y-3450100D02*
X3200000Y-3634000D01*
X4750000Y-3450100D02*
X3383900Y-3450100D01*
X4950000Y-3596000D02*
X4950000Y-3981000D01*
%TO.N,A7*%
X8317600Y-3577400D02*
X8317600Y-2792994D01*
X8300000Y-3595000D02*
X8317600Y-3577400D01*
X8317600Y-2792994D02*
X8409809Y-2700785D01*
X1450000Y-4650000D02*
X1676000Y-4650000D01*
X1450000Y-2180295D02*
X1450000Y-4650000D01*
X8450000Y-1800000D02*
X1830295Y-1800000D01*
X1830295Y-1800000D02*
X1450000Y-2180295D01*
X8300000Y-3595000D02*
X8300000Y-4000000D01*
%TO.N,D7*%
X5150000Y-3596000D02*
X5150000Y-3981000D01*
X4950000Y-3450100D02*
X4879900Y-3380000D01*
X4879900Y-3380000D02*
X3200000Y-3380000D01*
%TO.N,D10*%
X5750000Y-3596000D02*
X5750000Y-3981000D01*
X5180000Y-3180000D02*
X5180000Y-2879900D01*
X5550000Y-3450100D02*
X5450100Y-3450100D01*
X5450100Y-3450100D02*
X5180000Y-3180000D01*
%TO.N,D1*%
X3950000Y-4250000D02*
X3960100Y-4260100D01*
X3574000Y-5666000D02*
X3200000Y-5666000D01*
X3960100Y-4260100D02*
X3960100Y-5299900D01*
X3960100Y-5299900D02*
X3960000Y-5300000D01*
X3740000Y-5500000D02*
X3574000Y-5666000D01*
X3950000Y-3596000D02*
X3950000Y-3981000D01*
%TO.N,GND*%
X5275000Y-6596000D02*
X5250000Y-6596000D01*
X3650000Y-6596000D02*
X5250000Y-6596000D01*
X3650000Y-6796000D02*
X3450000Y-6596000D01*
X5275000Y-7996000D02*
X5380100Y-7890900D01*
X2042600Y-8702600D02*
X2687400Y-8702600D01*
X3600000Y-4650000D02*
X3346000Y-4904000D01*
X9320000Y-4660000D02*
X9429750Y-4660000D01*
X9270000Y-4750000D02*
X9270000Y-4819750D01*
X8450000Y-4950000D02*
X8500000Y-4900000D01*
X6625750Y-5889000D02*
X6668250Y-5846500D01*
X2790000Y-8600000D02*
X2790000Y-8456000D01*
X9500000Y-4039750D02*
X9245000Y-4039750D01*
X2300000Y-7250000D02*
X2300000Y-6600000D01*
X7500000Y-6850000D02*
X7463500Y-6886500D01*
X6878250Y-6596500D02*
X6878250Y-6406500D01*
X6018250Y-5896500D02*
X6218250Y-6096500D01*
X1550000Y-6496000D02*
X1650000Y-6596000D01*
X9240000Y-4849750D02*
X9240000Y-5039750D01*
X5250000Y-6414750D02*
X5768250Y-5896500D01*
X3250000Y-7996000D02*
X3046000Y-7996000D01*
X6218250Y-6696500D02*
X6458250Y-6696500D01*
X1940000Y-8600000D02*
X2042600Y-8702600D01*
X3735000Y-2096000D02*
X7400000Y-2096000D01*
X2687400Y-8702600D02*
X2790000Y-8600000D01*
X1550000Y-6400000D02*
X1550000Y-6496000D01*
X9240000Y-5079750D02*
X9232500Y-5087250D01*
X6218250Y-6755960D02*
X6218250Y-6696500D01*
X9429750Y-4660000D02*
X9432574Y-4657177D01*
X3346000Y-4904000D02*
X3200000Y-4904000D01*
X7209500Y-7190500D02*
X6652790Y-7190500D01*
X7250750Y-7149250D02*
X7209500Y-7190500D01*
X5380100Y-7890900D02*
X5380100Y-6701100D01*
X9270000Y-4819750D02*
X9240000Y-4849750D01*
X4060000Y-8550000D02*
X4162600Y-8652600D01*
X5250000Y-7996000D02*
X5250000Y-8050000D01*
X2296000Y-6596000D02*
X2300000Y-6600000D01*
X6458250Y-6696500D02*
X6568250Y-6586500D01*
X6718250Y-6246500D02*
X6718250Y-6126500D01*
X3104000Y-6596000D02*
X3250000Y-6596000D01*
X5250000Y-8050000D02*
X4750000Y-8550000D01*
X6625750Y-5911500D02*
X6625750Y-5889000D01*
X6868250Y-6396500D02*
X6718250Y-6246500D01*
X1676000Y-5412000D02*
X1550000Y-5538000D01*
X3450000Y-6596000D02*
X3250000Y-6596000D01*
X8450000Y-5200000D02*
X8450000Y-4950000D01*
X9500000Y-3589750D02*
X9500000Y-4039750D01*
X1650000Y-6596000D02*
X1650000Y-6796000D01*
X5768250Y-5896500D02*
X6018250Y-5896500D01*
X5250000Y-6596000D02*
X5250000Y-6414750D01*
X3100000Y-6600000D02*
X3104000Y-6596000D01*
X9240000Y-5139750D02*
X9270000Y-5109750D01*
X6878250Y-6406500D02*
X6868250Y-6396500D01*
X4647400Y-8652600D02*
X4750000Y-8550000D01*
X6253250Y-6061500D02*
X6218250Y-6096500D01*
X7250750Y-6886500D02*
X7250750Y-7149250D01*
X6652790Y-7190500D02*
X6218250Y-6755960D01*
X6600000Y-4700000D02*
X6350000Y-4700000D01*
X9232500Y-5087250D02*
X9232500Y-5339750D01*
X9240000Y-5039750D02*
X9240000Y-5079750D01*
X1650000Y-6596000D02*
X2296000Y-6596000D01*
X6218250Y-5891500D02*
X6218250Y-6096500D01*
X3046000Y-7996000D02*
X2300000Y-7250000D01*
X6350000Y-4700000D02*
X6300000Y-4650000D01*
X4162600Y-8652600D02*
X4647400Y-8652600D01*
X3000000Y-6600000D02*
X3100000Y-6600000D01*
X1550000Y-5538000D02*
X1550000Y-5800000D01*
X8550000Y-6817500D02*
X8700000Y-6667500D01*
X5250000Y-7996000D02*
X5275000Y-7996000D01*
X8700000Y-6667500D02*
X8700000Y-6467500D01*
X2840000Y-8550000D02*
X4060000Y-8550000D01*
X2790000Y-8456000D02*
X3250000Y-7996000D01*
X9500000Y-4039750D02*
X9500000Y-4539750D01*
X5380100Y-6701100D02*
X5275000Y-6596000D01*
X7463500Y-6886500D02*
X7250750Y-6886500D01*
X2790000Y-8600000D02*
X2840000Y-8550000D01*
X3650000Y-6596000D02*
X3650000Y-6796000D01*
X6625750Y-6061500D02*
X6253250Y-6061500D01*
%TO.N,A2*%
X7300000Y-3595000D02*
X7495000Y-3400000D01*
X5632400Y-2900766D02*
X5632400Y-2532400D01*
X2550000Y-2800000D02*
X2050000Y-2800000D01*
X5632400Y-2532400D02*
X5550000Y-2450000D01*
X7300000Y-3595000D02*
X7300000Y-4000000D01*
X1676000Y-3380000D02*
X2030000Y-3380000D01*
X5906353Y-3002687D02*
X5734321Y-3002687D01*
X5734321Y-3002687D02*
X5632400Y-2900766D01*
X5906353Y-3210000D02*
X5906353Y-3002687D01*
X7495000Y-3400000D02*
X7500000Y-3400000D01*
X2030000Y-3380000D02*
X2050000Y-3400000D01*
%TO.N,D4*%
X4100000Y-7000000D02*
X4100000Y-6800000D01*
X3704000Y-7396000D02*
X4100000Y-7000000D01*
X3650000Y-7396000D02*
X3704000Y-7396000D01*
X3392000Y-4142000D02*
X3200000Y-4142000D01*
X4550000Y-3596000D02*
X4550000Y-3981000D01*
X3450000Y-4089290D02*
X3394645Y-4144645D01*
X3394645Y-4144645D02*
X3392000Y-4142000D01*
X3550000Y-3800000D02*
X3450000Y-3900000D01*
X3450000Y-3900000D02*
X3450000Y-4089290D01*
%TO.N,D12*%
X2960000Y-2900000D02*
X2915006Y-2900000D01*
X2839900Y-2470100D02*
X3200000Y-2110000D01*
X2589900Y-6560900D02*
X2589900Y-5075106D01*
X2865006Y-4800000D02*
X2900000Y-4800000D01*
X5539900Y-3290000D02*
X5450000Y-3290000D01*
X5700000Y-3450100D02*
X5539900Y-3290000D01*
X2915006Y-2900000D02*
X2839900Y-2824894D01*
X3446000Y-7196000D02*
X3450000Y-7200000D01*
X6150000Y-3596000D02*
X6150000Y-3981000D01*
X2839900Y-2824894D02*
X2839900Y-2470100D01*
X3400000Y-2200000D02*
X3310000Y-2110000D01*
X2900000Y-4250000D02*
X2900000Y-3150000D01*
X3250000Y-7196000D02*
X3446000Y-7196000D01*
X3400000Y-2968366D02*
X3400000Y-2200000D01*
X6004100Y-3450100D02*
X6000000Y-3450100D01*
X3671634Y-3240000D02*
X3400000Y-2968366D01*
X3225000Y-7196000D02*
X2589900Y-6560900D01*
X6150000Y-3596000D02*
X6004100Y-3450100D01*
X2589900Y-5075106D02*
X2865006Y-4800000D01*
X4750000Y-3240000D02*
X3671634Y-3240000D01*
X4854000Y-7196000D02*
X5250000Y-7196000D01*
X4850000Y-7200000D02*
X4854000Y-7196000D01*
X3250000Y-7196000D02*
X3225000Y-7196000D01*
X3310000Y-2110000D02*
X3200000Y-2110000D01*
%TO.N,A3*%
X3256610Y-1999900D02*
X3455110Y-2198400D01*
X7440427Y-2198400D02*
X7806569Y-2564541D01*
X7806569Y-2564541D02*
X7806569Y-3078500D01*
X7500000Y-3595000D02*
X7500000Y-4000000D01*
X2600100Y-1999900D02*
X3256610Y-1999900D01*
X3455110Y-2198400D02*
X7440427Y-2198400D01*
X2250000Y-3284994D02*
X2250000Y-3050000D01*
X1900994Y-3634000D02*
X2250000Y-3284994D01*
X1676000Y-3634000D02*
X1900994Y-3634000D01*
X2300000Y-2300000D02*
X2600100Y-1999900D01*
%TO.N,D0*%
X3750000Y-4200000D02*
X3700000Y-4250000D01*
X3750000Y-3596000D02*
X3750000Y-3981000D01*
X3700000Y-4912000D02*
X3200000Y-5412000D01*
X3700000Y-4250000D02*
X3700000Y-4912000D01*
%TO.N,A4*%
X8863788Y-4213538D02*
X8840000Y-4189750D01*
X1988000Y-3888000D02*
X1676000Y-3888000D01*
X8086171Y-4794272D02*
X8098043Y-4782400D01*
X7239900Y-4175106D02*
X7239900Y-4524894D01*
X8367600Y-4782400D02*
X8700000Y-4450000D01*
X7239900Y-4524894D02*
X7644906Y-4929900D01*
X7950000Y-4950000D02*
X7950000Y-5300000D01*
X3740000Y-5100000D02*
X3317900Y-5522100D01*
X7644906Y-4929900D02*
X7700000Y-4929900D01*
X3154395Y-5522100D02*
X3050000Y-5417705D01*
X5650000Y-5550000D02*
X5300000Y-5550000D01*
X8840000Y-3610000D02*
X9150000Y-3300000D01*
X7950000Y-5300000D02*
X7750000Y-5500000D01*
X8840000Y-4189750D02*
X8840000Y-3610000D01*
X7275106Y-4139900D02*
X7239900Y-4175106D01*
X3317900Y-5522100D02*
X3154395Y-5522100D01*
X3050000Y-5417705D02*
X3050000Y-4750000D01*
X7700000Y-4000000D02*
X7560100Y-4139900D01*
X7560100Y-4139900D02*
X7275106Y-4139900D01*
X8863788Y-4336212D02*
X8863788Y-4213538D01*
X8840000Y-4189750D02*
X9087027Y-4189750D01*
X2000000Y-3900000D02*
X1988000Y-3888000D01*
X9087027Y-4189750D02*
X9320000Y-4422723D01*
X9320000Y-4422723D02*
X9320000Y-4500000D01*
X8098043Y-4782400D02*
X8367600Y-4782400D01*
X7700000Y-3595000D02*
X7700000Y-4000000D01*
%TO.N,D11*%
X2650000Y-4110000D02*
X2800000Y-3960000D01*
X5550000Y-2750000D02*
X5550000Y-3110866D01*
X3446000Y-6996000D02*
X3450000Y-7000000D01*
X2650000Y-6421000D02*
X2650000Y-5100000D01*
X5950000Y-3596000D02*
X5950000Y-3981000D01*
X3250000Y-6996000D02*
X3225000Y-6996000D01*
X3250000Y-6996000D02*
X3446000Y-6996000D01*
X5909900Y-3555900D02*
X5950000Y-3596000D01*
X2900000Y-2800000D02*
X2900000Y-2664000D01*
X3225000Y-6996000D02*
X2650000Y-6421000D01*
X4850000Y-7000000D02*
X5000000Y-7000000D01*
X2800000Y-3960000D02*
X2800000Y-3100000D01*
X5909900Y-3470766D02*
X5909900Y-3555900D01*
X5550000Y-3110866D02*
X5909900Y-3470766D01*
X5004000Y-6996000D02*
X5250000Y-6996000D01*
X2900000Y-2664000D02*
X3200000Y-2364000D01*
X5000000Y-7000000D02*
X5004000Y-6996000D01*
%TO.N,D13*%
X4350000Y-4250000D02*
X4239900Y-4139900D01*
X6031000Y-4300000D02*
X5912400Y-4300000D01*
X4950000Y-7400000D02*
X4954000Y-7396000D01*
X3250000Y-7396000D02*
X2554000Y-7396000D01*
X6350000Y-3981000D02*
X6031000Y-4300000D01*
X3446000Y-7396000D02*
X3450000Y-7400000D01*
X3710100Y-4139900D02*
X3600000Y-4250000D01*
X6350000Y-3596000D02*
X6350000Y-3981000D01*
X4850000Y-7400000D02*
X4950000Y-7400000D01*
X3250000Y-7396000D02*
X3446000Y-7396000D01*
X2554000Y-7396000D02*
X2550000Y-7400000D01*
X4954000Y-7396000D02*
X5250000Y-7396000D01*
X4239900Y-4139900D02*
X3710100Y-4139900D01*
%TO.N,A1*%
X5150000Y-2700000D02*
X5150000Y-2500800D01*
X7660100Y-3065106D02*
X7624894Y-3029900D01*
X7624894Y-3029900D02*
X6129900Y-3029900D01*
X7254900Y-3440100D02*
X7374906Y-3440100D01*
X3601600Y-2398400D02*
X3500000Y-2500000D01*
X7660100Y-3154906D02*
X7660100Y-3065106D01*
X1910000Y-3100000D02*
X1884000Y-3126000D01*
X7374906Y-3440100D02*
X7660100Y-3154906D01*
X7100000Y-3595000D02*
X7254900Y-3440100D01*
X1884000Y-3126000D02*
X1676000Y-3126000D01*
X2550000Y-2900000D02*
X1910000Y-2900000D01*
X6129900Y-3029900D02*
X5950000Y-2850000D01*
X7100000Y-3595000D02*
X7100000Y-4000000D01*
X5150000Y-2500800D02*
X5047600Y-2398400D01*
X5047600Y-2398400D02*
X3601600Y-2398400D01*
%TO.N,A5*%
X6463984Y-2932350D02*
X6350000Y-2818366D01*
X2550000Y-1950000D02*
X2150000Y-2350000D01*
X7900000Y-3595000D02*
X7700200Y-3395200D01*
X1902000Y-4142000D02*
X1676000Y-4142000D01*
X7900000Y-3595000D02*
X7900000Y-4000000D01*
X1910000Y-4150000D02*
X1902000Y-4142000D01*
X9790000Y-4539750D02*
X9790000Y-4640000D01*
X2150000Y-2350000D02*
X2150000Y-2700000D01*
X6350000Y-2818366D02*
X6350000Y-2750000D01*
X7700200Y-3395200D02*
X7700200Y-3048496D01*
X7584054Y-2932350D02*
X6463984Y-2932350D01*
X6350000Y-1950000D02*
X2550000Y-1950000D01*
X9450000Y-4350000D02*
X9450000Y-4447277D01*
X9350000Y-4250000D02*
X9450000Y-4350000D01*
X7700200Y-3048496D02*
X7584054Y-2932350D01*
X9790000Y-4640000D02*
X9800000Y-4650000D01*
X9450000Y-4447277D02*
X9357377Y-4539900D01*
%TO.N,A0*%
X7356710Y-3400000D02*
X6900000Y-3400000D01*
X7600000Y-3156710D02*
X7356710Y-3400000D01*
X6900000Y-3595000D02*
X6900000Y-4000000D01*
X3282100Y-2982100D02*
X3500000Y-3200000D01*
X7600000Y-3090000D02*
X7600000Y-3156710D01*
X1786100Y-2982100D02*
X3282100Y-2982100D01*
X1676000Y-2872000D02*
X1786100Y-2982100D01*
X6900000Y-3400000D02*
X6900000Y-3595000D01*
%TO.N,A6*%
X8100000Y-3595000D02*
X7746469Y-3241469D01*
X2650000Y-2550000D02*
X2650000Y-2900000D01*
X7746469Y-2596469D02*
X7550000Y-2400000D01*
X8100000Y-3595000D02*
X8100000Y-4000000D01*
X2154000Y-4396000D02*
X1676000Y-4396000D01*
X2650000Y-3900000D02*
X2154000Y-4396000D01*
X7746469Y-3241469D02*
X7746469Y-2596469D01*
%TO.N,D3*%
X1446000Y-6150000D02*
X3200000Y-4396000D01*
X4350000Y-3596000D02*
X4350000Y-3981000D01*
X3600000Y-3840000D02*
X3600000Y-3996000D01*
X1400000Y-6150000D02*
X1446000Y-6150000D01*
X3600000Y-3996000D02*
X3200000Y-4396000D01*
X1400000Y-7171000D02*
X1400000Y-6150000D01*
X1650000Y-7396000D02*
X1625000Y-7396000D01*
X3690000Y-3750000D02*
X3600000Y-3840000D01*
X1625000Y-7396000D02*
X1400000Y-7171000D01*
%TO.N,3V3*%
X2600000Y-8300000D02*
X2600000Y-8600000D01*
X9690000Y-4257250D02*
X9790000Y-4357250D01*
X9690000Y-3589750D02*
X9690000Y-4039750D01*
X9741250Y-4881000D02*
X9689900Y-4829650D01*
X9250000Y-3900000D02*
X9360000Y-3900000D01*
X9741250Y-5568750D02*
X8760000Y-6550000D01*
X4560000Y-8550000D02*
X4250000Y-8550000D01*
X8657500Y-4022500D02*
X8780000Y-3900000D01*
X9600000Y-3679750D02*
X9690000Y-3589750D01*
X1770000Y-6996000D02*
X1650000Y-6996000D01*
X2130000Y-7356000D02*
X1770000Y-6996000D01*
X8657500Y-4189750D02*
X8657500Y-4214777D01*
X3804000Y-6996000D02*
X3650000Y-6996000D01*
X9689900Y-4457350D02*
X9790000Y-4357250D01*
X9600000Y-3750000D02*
X9600000Y-3679750D01*
X2600000Y-8600000D02*
X2130000Y-8600000D01*
X8657500Y-4189750D02*
X8657500Y-4022500D01*
X4550000Y-8400000D02*
X4560000Y-8410000D01*
X4550000Y-8300000D02*
X4550000Y-8400000D01*
X2130000Y-8600000D02*
X2130000Y-7356000D01*
X4560000Y-8410000D02*
X4560000Y-8550000D01*
X9360000Y-3900000D02*
X9410000Y-3850000D01*
X3900000Y-6900000D02*
X3804000Y-6996000D01*
X9689900Y-4829650D02*
X9689900Y-4457350D01*
X8657500Y-4214777D02*
X8982823Y-4540100D01*
X9741250Y-4881000D02*
X9741250Y-5568750D01*
X9690000Y-4039750D02*
X9690000Y-4257250D01*
X4250000Y-8550000D02*
X4250000Y-6800000D01*
%TO.N,VIN*%
X6218250Y-6506500D02*
X6458250Y-6506500D01*
X6458250Y-6506500D02*
X6568250Y-6396500D01*
X6718250Y-5846500D02*
X6793250Y-5846500D01*
%TO.N,Net-(U6-VAUX)*%
X6409500Y-5787750D02*
X6409500Y-5940500D01*
X6218250Y-5596500D02*
X6409500Y-5787750D01*
X6409500Y-5940500D02*
X6480500Y-6011500D01*
X6480500Y-6011500D02*
X6625750Y-6011500D01*
%TO.N,Net-(U5-REGOUT)*%
X8860000Y-4636698D02*
X8876398Y-4620300D01*
X9055000Y-4039750D02*
X9134750Y-4039750D01*
X9134750Y-4039750D02*
X9145000Y-4050000D01*
D35*
X8900000Y-4620300D02*
X8900300Y-4620000D01*
X8876398Y-4620300D02*
X8900000Y-4620300D01*
X8900300Y-4620000D02*
X9020000Y-4620000D01*
D34*
%TO.N,Net-(J1-Pin_3)*%
X7000000Y-2846000D02*
X7000000Y-2501000D01*
X7000000Y-2501000D02*
X6995000Y-2496000D01*
%TO.N,Net-(J2-Pin_3)*%
X7400000Y-2846000D02*
X7400000Y-2496000D01*
%TO.N,Net-(J3-Pin_6)*%
X9200000Y-2596000D02*
X9150000Y-2546000D01*
X9200000Y-2853500D02*
X9200000Y-2596000D01*
X9150000Y-2141000D02*
X9150000Y-2546000D01*
%TO.N,Net-(J3-Pin_8)*%
X9550000Y-2141000D02*
X9550000Y-2546000D01*
X9700000Y-2853500D02*
X9550000Y-2703500D01*
X9550000Y-2703500D02*
X9550000Y-2546000D01*
%TO.N,Net-(J3-Pin_4)*%
X8700000Y-2853500D02*
X8700000Y-2596000D01*
X8700000Y-2596000D02*
X8750000Y-2546000D01*
X8750000Y-2141000D02*
X8750000Y-2546000D01*
%TO.N,Net-(J3-Pin_2)*%
X8350000Y-2141000D02*
X8350000Y-2546000D01*
X8200000Y-2846000D02*
X8350000Y-2696000D01*
X8350000Y-2696000D02*
X8350000Y-2546000D01*
%TO.N,Net-(J3-Pin_3)*%
X8550000Y-2746000D02*
X8550000Y-2546000D01*
X8450000Y-2846000D02*
X8550000Y-2746000D01*
X8550000Y-2141000D02*
X8550000Y-2546000D01*
%TO.N,Net-(J3-Pin_5)*%
X8950000Y-2141000D02*
X8950000Y-2546000D01*
X8950000Y-2853500D02*
X8950000Y-2546000D01*
%TO.N,Net-(J3-Pin_7)*%
X9350000Y-2753500D02*
X9350000Y-2546000D01*
X9350000Y-2141000D02*
X9350000Y-2546000D01*
X9450000Y-2853500D02*
X9350000Y-2753500D01*
%TO.N,Net-(J3-Pin_9)*%
X9750000Y-2141000D02*
X9750000Y-2546000D01*
X9750000Y-2653500D02*
X9750000Y-2546000D01*
X9950000Y-2853500D02*
X9750000Y-2653500D01*
%TO.N,Net-(J3-Pin_1)*%
X8150000Y-2646000D02*
X8150000Y-2546000D01*
X8150000Y-2141000D02*
X8150000Y-2546000D01*
X7950000Y-2846000D02*
X8150000Y-2646000D01*
%TO.N,Net-(JP1-B)*%
X6449500Y-5610000D02*
X6449500Y-5199500D01*
X6449500Y-5199500D02*
X6300000Y-5050000D01*
%TO.N,Net-(JP2-B)*%
X7669500Y-5700000D02*
X7900000Y-5469500D01*
X6134994Y-4700000D02*
X6509500Y-5074506D01*
X6389500Y-5682897D02*
X6403301Y-5696698D01*
X6509500Y-5074506D02*
X6509500Y-5450000D01*
X7900000Y-5469500D02*
X7900000Y-5450000D01*
X5750000Y-4700000D02*
X6134994Y-4700000D01*
X6389500Y-5450000D02*
X6389500Y-5682897D01*
%TO.N,Net-(JP3-B)*%
X5150000Y-4500000D02*
X5150000Y-4800000D01*
X6170747Y-5750000D02*
X6250000Y-5750000D01*
X5480947Y-5060200D02*
X6170747Y-5750000D01*
X4600000Y-4590000D02*
X4420000Y-4590000D01*
X4420000Y-4590000D02*
X4350000Y-4660000D01*
%TO.N,Net-(JP4-B)*%
X4093290Y-5800000D02*
X3900000Y-5606710D01*
X5650000Y-4650000D02*
X5450000Y-4850000D01*
X3900000Y-5606710D02*
X3900000Y-4550000D01*
X5650000Y-5800000D02*
X4093290Y-5800000D01*
X5450000Y-4900000D02*
X5100000Y-4900000D01*
X5450000Y-4850000D02*
X5450000Y-4900000D01*
%TO.N,Net-(JP5-B)*%
X5789900Y-4960100D02*
X4810100Y-4960100D01*
X4810100Y-4960100D02*
X4700000Y-4850000D01*
X4150000Y-4915006D02*
X4315006Y-4750000D01*
X8145820Y-5454180D02*
X7700000Y-5900000D01*
X5600000Y-5900000D02*
X5400000Y-5900000D01*
X5850000Y-4900000D02*
X5789900Y-4960100D01*
X4150000Y-5200000D02*
X4150000Y-4915006D01*
X4315006Y-4750000D02*
X4350000Y-4750000D01*
X8145820Y-5034800D02*
X8145820Y-5454180D01*
%TO.N,Net-(JP6-B)*%
X7100000Y-5300000D02*
X7591704Y-5300000D01*
X7879999Y-5011706D02*
X7879999Y-4800493D01*
X6300000Y-4950000D02*
X6249800Y-5000200D01*
X6249800Y-5000200D02*
X4450200Y-5000200D01*
X4450200Y-5000200D02*
X4300000Y-4850000D01*
X7591704Y-5300000D02*
X7879999Y-5011706D01*
%TO.N,Net-(U6-L2)*%
X7268250Y-6096500D02*
X7065500Y-6096500D01*
X7005500Y-6036500D02*
X6818250Y-6036500D01*
X7065500Y-6096500D02*
X7005500Y-6036500D01*
%TO.N,Net-(U6-L1)*%
X7090500Y-5859500D02*
X7009500Y-5940500D01*
X7005500Y-5936500D02*
X6818250Y-5936500D01*
X7268250Y-5859500D02*
X7090500Y-5859500D01*
X7009500Y-5940500D02*
X7005500Y-5936500D01*
%TO.N,Net-(M1-PWM)*%
X6550000Y-2846000D02*
X6550000Y-2516000D01*
X6550000Y-2516000D02*
X6570000Y-2496000D01*
%TO.N,Net-(M2-PWM)*%
X6150000Y-2511000D02*
X6165000Y-2496000D01*
X6150000Y-2853500D02*
X6150000Y-2511000D01*
%TO.N,Net-(M3-PWM)*%
X5750000Y-2846000D02*
X5750000Y-2506000D01*
X5750000Y-2506000D02*
X5760000Y-2496000D01*
%TO.N,Net-(M4-PWM)*%
X5350000Y-2853500D02*
X5350000Y-2501000D01*
X5350000Y-2501000D02*
X5355000Y-2496000D01*
%TO.N,Net-(M5-PWM)*%
X4950000Y-2846000D02*
X4950000Y-2496000D01*
%TO.N,Net-(M6-PWM)*%
X4550000Y-2846000D02*
X4550000Y-2501000D01*
X4550000Y-2501000D02*
X4545000Y-2496000D01*
%TO.N,Net-(M7-PWM)*%
X4150000Y-2506000D02*
X4140000Y-2496000D01*
X4150000Y-2853500D02*
X4150000Y-2506000D01*
%TO.N,Net-(M8-PWM)*%
X3750000Y-2511000D02*
X3735000Y-2496000D01*
X3750000Y-2853500D02*
X3750000Y-2511000D01*
%TO.N,Net-(U1-~{OE})*%
X7150000Y-4950000D02*
X7050000Y-4950000D01*
X7400000Y-5200000D02*
X7150000Y-4950000D01*
X7800000Y-4800000D02*
X7800000Y-5034994D01*
X7634994Y-5200000D02*
X7400000Y-5200000D01*
X7800000Y-5034994D02*
X7634994Y-5200000D01*
%TO.N,PWM 0*%
X6709900Y-4144753D02*
X6709900Y-3383390D01*
X6709900Y-3383390D02*
X6954790Y-3138500D01*
X6954790Y-3138500D02*
X7000000Y-3138500D01*
X7582573Y-5017427D02*
X6709900Y-4144753D01*
%TO.N,PWM 1*%
X6800000Y-3350000D02*
X7350000Y-3350000D01*
X7350000Y-3350000D02*
X7400000Y-3300000D01*
X7400000Y-3300000D02*
X7400000Y-3138500D01*
X6750000Y-3400000D02*
X6800000Y-3350000D01*
X7700000Y-5050000D02*
X6750000Y-4100000D01*
X6750000Y-4100000D02*
X6750000Y-3400000D01*
%TO.N,PWM 6*%
X4950000Y-3300000D02*
X4950000Y-3138500D01*
%TO.N,PWM 5*%
X6953290Y-5460000D02*
X7450000Y-5460000D01*
X5350000Y-3146000D02*
X5496000Y-3146000D01*
X5496000Y-3146000D02*
X5852400Y-3502400D01*
X5852400Y-3502400D02*
X5852400Y-4359110D01*
X5852400Y-4359110D02*
X6953290Y-5460000D01*
%TO.N,PWM 4*%
X7550000Y-5400000D02*
X6950000Y-5400000D01*
X5961500Y-3350000D02*
X5750000Y-3138500D01*
X6750000Y-4411410D02*
X6550000Y-4211410D01*
X6550000Y-3350000D02*
X5961500Y-3350000D01*
X6750000Y-5200000D02*
X6750000Y-4411410D01*
X6950000Y-5400000D02*
X6750000Y-5200000D01*
X6550000Y-4211410D02*
X6550000Y-3350000D01*
%TO.N,PWM 3*%
X6304000Y-3300000D02*
X6600000Y-3300000D01*
X6600000Y-3300000D02*
X6600000Y-4204700D01*
X6600000Y-4204700D02*
X7512197Y-5116897D01*
X6150000Y-3146000D02*
X6304000Y-3300000D01*
%TO.N,PWM 2*%
X6669800Y-4189647D02*
X6669800Y-3258300D01*
X7627430Y-5083668D02*
X7563821Y-5083668D01*
X7563821Y-5083668D02*
X6669800Y-4189647D01*
X6669800Y-3258300D02*
X6550000Y-3138500D01*
%TO.N,PWM 7*%
X7900000Y-3300000D02*
X7900000Y-3188500D01*
X4350000Y-3150000D02*
X4361500Y-3138500D01*
X7600000Y-3350000D02*
X7600000Y-3750000D01*
X7900000Y-3188500D02*
X7950000Y-3138500D01*
X4550000Y-3138500D02*
X4738500Y-3138500D01*
X4361500Y-3138500D02*
X4550000Y-3138500D01*
X4738500Y-3138500D02*
X4750000Y-3150000D01*
%TO.N,PWM 8*%
X8200000Y-3138500D02*
X8200000Y-4200000D01*
X4150000Y-3000000D02*
X4150000Y-3146000D01*
X8200000Y-3138500D02*
X8200000Y-3000000D01*
X8200000Y-4200000D02*
X7300000Y-4200000D01*
%TO.N,PWM 9*%
X8400000Y-4300000D02*
X7350000Y-4300000D01*
X8450000Y-3138500D02*
X8450000Y-2952250D01*
X8450000Y-3138500D02*
X8450000Y-4250000D01*
X8450000Y-4250000D02*
X8400000Y-4300000D01*
X3750000Y-3000000D02*
X3750000Y-3146000D01*
%TO.N,PWM 10*%
X8500000Y-4300000D02*
X8500000Y-3300000D01*
X8500000Y-3300000D02*
X8546000Y-3300000D01*
X7410000Y-4360000D02*
X8440000Y-4360000D01*
X8440000Y-4360000D02*
X8500000Y-4300000D01*
X8546000Y-3300000D02*
X8700000Y-3146000D01*
%TO.N,PWM 11*%
X8950000Y-3146000D02*
X8738222Y-3357778D01*
X8738222Y-3357778D02*
X8562178Y-3357778D01*
%TO.N,PWM 12*%
X8550000Y-4306710D02*
X8456710Y-4400000D01*
X9200000Y-3146000D02*
X8896000Y-3450000D01*
X7550000Y-4400000D02*
X7550000Y-4460000D01*
X8456710Y-4400000D02*
X7550000Y-4400000D01*
X8550000Y-3450000D02*
X8550000Y-4306710D01*
X8896000Y-3450000D02*
X8550000Y-3450000D01*
%TO.N,PWM 13*%
X9450000Y-3300000D02*
X9450000Y-3146000D01*
X7610100Y-4450000D02*
X8500000Y-4450000D01*
X8500000Y-4450000D02*
X8550000Y-4400000D01*
X7610100Y-4789900D02*
X7610100Y-4450000D01*
X7600000Y-4800000D02*
X7610100Y-4789900D01*
%TO.N,PWM 14*%
X7660100Y-4853037D02*
X7660100Y-4509900D01*
X7656569Y-4856569D02*
X7660100Y-4853037D01*
X9700000Y-3300000D02*
X9700000Y-3146000D01*
X7650200Y-4500000D02*
X8563137Y-4500000D01*
X7660100Y-4509900D02*
X7650200Y-4500000D01*
X8563137Y-4500000D02*
X8606569Y-4456569D01*
%TO.N,PWM 15*%
X9200000Y-3400000D02*
X9850000Y-3400000D01*
X9850000Y-3400000D02*
X9950000Y-3300000D01*
X9950000Y-3300000D02*
X9950000Y-3146000D01*
%TO.N,Net-(U6-FB)*%
X6659500Y-7140500D02*
X6668250Y-7131750D01*
X7068250Y-6886500D02*
X7068250Y-7131750D01*
X6668250Y-7131750D02*
X6668250Y-6891500D01*
X7068250Y-7131750D02*
X7059500Y-7140500D01*
X6668250Y-6253210D02*
X6707520Y-6292480D01*
X6668250Y-6126500D02*
X6668250Y-6253210D01*
X7059500Y-7140500D02*
X6659500Y-7140500D01*
X6707520Y-6852230D02*
X6668250Y-6891500D01*
X6707520Y-6292480D02*
X6707520Y-6852230D01*
%TO.N,Net-(U6-PG)*%
X6625750Y-5961500D02*
X6573550Y-5961500D01*
X7559500Y-6440500D02*
X7463500Y-6536500D01*
X7559500Y-5540500D02*
X7609500Y-5590500D01*
X6509500Y-5897450D02*
X6509500Y-5540500D01*
X7609500Y-5590500D02*
X7609500Y-6440500D01*
X6573550Y-5961500D02*
X6509500Y-5897450D01*
X7609500Y-6440500D02*
X7559500Y-6440500D01*
X6509500Y-5540500D02*
X7559500Y-5540500D01*
X7463500Y-6536500D02*
X7359500Y-6536500D01*
%TO.N,FSYNC*%
X8952973Y-4689750D02*
X8982823Y-4659900D01*
X9057500Y-4947250D02*
X8950000Y-4839750D01*
X9057500Y-5039750D02*
X9057500Y-4947250D01*
X8950000Y-4839750D02*
X8950000Y-4689750D01*
X8950000Y-4689750D02*
X8952973Y-4689750D01*
%TO.N,AD0*%
X8800000Y-5089750D02*
X8800000Y-4450000D01*
X8880200Y-4580200D02*
X8982523Y-4580200D01*
X8850000Y-4550000D02*
X8880200Y-4580200D01*
X9050000Y-5339750D02*
X8800000Y-5089750D01*
%TO.N,NCS*%
X9440250Y-4580000D02*
X9320000Y-4580000D01*
X9558750Y-4698500D02*
X9440250Y-4580000D01*
X9558750Y-4881000D02*
X9558750Y-4698500D01*
%TD*%
M02*
